<svg id="Layer_1" data-name="Layer 1" xmlns="http://www.w3.org/2000/svg" viewBox="0 0 343.1 264.56"><defs><style>.cls-1{fill:#7cc5c3;fill-rule:evenodd;}</style></defs><title>AK</title><path class="cls-1" d="M281.57,197.57c.19-1.38,1.81-1.62,2.35-2.53a2.7,2.7,0,0,0,.47-1.87,1.6,1.6,0,0,1-.11-.71,4.38,4.38,0,0,0,.29-1.76,7.06,7.06,0,0,1,2.47-2c.6-.21,1.32.19,1.76,0,1.21-.52,1.85-1.81,3.05-2.28s3.11.75,3.64,1.23l.23.41c.45.36,1.08.47,1.41.94a9.16,9.16,0,0,1,1.17,2.82v2.11l.42.88c1.1.63,2.8,1,3.4,2.11s-.08,2.65.88,3.29a20.22,20.22,0,0,0,2.7,1.58c1,.47,2.19.7,2.94,1.53a8.07,8.07,0,0,1,1.05,2.12c.17.35.57.63.77.94s.2,1,.47,1.4a12.08,12.08,0,0,0,1.58,2.29c.38.33.88.53,1.24.88.61.63.71,1.74,1.23,2.47l.58.59c.29.48.38,1,.71,1.46.11.16.33.11.47.24s.29.72.53,1.06l.41.29c.44.64.29,1.85.64,2.4l.36.18c.33.43.48,1,.82,1.41.18.23.57.35.76.59s.17.63.24.7h.23a13,13,0,0,1,1.47,1.41c.46.47,1.39.37,1.58,1.12a8.6,8.6,0,0,0,.18,2.29c0,.11.25,2,.23,2.05a10.06,10.06,0,0,1,.53,1.64c.65.36,1.36,1,1.88,1.3l1.06.17a8,8,0,0,1,1.7.71c.28.17.56,0,.88.17.55.39,1.1.78,1.64,1.18l1.18.29c.57.26,1.16.83,1.76,1.06a2.32,2.32,0,0,1,.65.17,8.48,8.48,0,0,0,1.23.94l.7.06,1.53.53a6.81,6.81,0,0,1,1.41.23c.13.28.39.51.41.88l-.06.94c.38,1.32.8,3.05,1.17,4.29l.12.82.06-.41a14.76,14.76,0,0,0,.53,2.47v1.7a10,10,0,0,1,.41,4.52c-.14.71-.71.93-.94,1.53-.1-.06,0-.17-.12-.06-.35.31-.47,1.74-.64,2.29-.39,1.24-1.65,4-2.64,4.57-.28.16-.59,0-.94.12s-.28.34-.83.35c-.34-.33-.54-.23-1.05-.47a8.92,8.92,0,0,1-1.65-1.76c0-.64,0-1.29-.05-1.93-1.33-.57-1.38-2.69-2.06-4a5.66,5.66,0,0,1-1.94-.76l-.64-.12-.47-.58-.88-.12c-.65-.23-1.25-.75-1.82-.35a2.27,2.27,0,0,0,0,1.46,3.64,3.64,0,0,1,1.23,1c1.18,1.33,0,2-.29,3.47.09.31.19.62.29.94l-.12.88a2.78,2.78,0,0,0,.24,1.23l-.24.76c-.48.22-.93,0-1.58.12s-1.1.69-2.06.64c-.22-.37-.6-.59-.82-.93s-.35-.83-.53-1.24l-.88-.76c-.62-.86-1.27-1.5-1.93-2.29-.21.08,0,0-.3,0,0,.16-.05.12-.12.35a4.36,4.36,0,0,1,.18,1.06c.15.51.65.78.82,1.35.09.28-.05.56.12.94l.94,1c1.38,2.9-.28,3.17-2.76,2.93L318,264c-.17-.41-.35-.82-.53-1.23l-1.05-.65a26.21,26.21,0,0,1-1.71-2.58,2.66,2.66,0,0,1-.17-1.58,19.82,19.82,0,0,0-1.12-2.53c-.22-.42-.17-1-.59-1.23-.76-.42-1.4.51-2.34.29a2.66,2.66,0,0,1-1.53-3.17c.56-.32,2.58-1.28,2.76-1.82-.14-.14-.11-.34-.24-.53-.4-.6-1.13-1-1.46-1.76-1.12-2.43.28-6.16.29-8.86l-.12-.12c-.43.27-1,.27-1.23.76a18,18,0,0,0-.47,3.29c0,.53.3,1-.18,1.41-.64.43-2.49.32-3.34.18a22.67,22.67,0,0,1-.71-4c-.12-.79.43-1.1.24-1.88a11.72,11.72,0,0,0-.77-1.76c-.13-.33-.09-.78-.23-1.06.44-.43.35-3.58-.47-3.82L303,232c-.21.4,0,1-.17,1.82a7.16,7.16,0,0,1-.36.82c-.31.91.09,1.5-.06,2.23a3.58,3.58,0,0,1-.11.35c.15,1.42.57,3.66.17,4.64l-.41.3c-3.19,0-2.61-2.71-3.52-4.82-.16-.36-.58-.56-.76-.88a19.53,19.53,0,0,0-1-1.7c-.32-.45-.81-.57-1.18-1l-1-2.35c-.64-.71-1.7-.76-2.53-1.29-.23-.24-.47-.47-.7-.7-.5-.27-1.16-.13-1.18-1.06a3.88,3.88,0,0,1,.3-1.94c.21-.49-.24-1.56-.06-1.93-.21-.14-.24-.17-.24-.53-.16-.33.41-.84.24-1.3-.51-1.38-1.77-2.72-2.58-4.05-.22-.34-.31-1.36-.65-1.58l-1.58-.35a3.8,3.8,0,0,1-.53-2.88,3.92,3.92,0,0,1-.41-1.64c.84-.41,3.17-.66,3.4-1.53-.28.07-.45-.22-.59-.18a10,10,0,0,1-3.81-.64c-.14-.2-.28-.39-.41-.59l-.77-.41c-.15-.22-.31-.43-.47-.65-.37-.24-.8-.31-1.17-.58-.2-.15-.16-.36-.29-.59l-1.12-.76c-.29-.34-.59-.67-.88-1-.63-.49-1.62-.92-2.05-1.59-.75-1.15-1.56-2.77-2.76-3.46-.53-.3-1.1-.4-1.65-.7-.23-.13-.38-.48-.58-.59-.91-.5-1.92-.59-2.76-1.12-1.22-.75-2-2.06-3.23-2.81a8.94,8.94,0,0,1-3.41-2.18l-.06-.23h-.29c-.49-.9-1-1.23-.7-2.41-.16,0-.07,0-.12-.12a15.82,15.82,0,0,0,1.41-3.93h-.18l-1,.24c-.34.25-.59.67-1.05.82l-3.11.47a6,6,0,0,1-3.76.47l-1.7-1c-1.1-.54-2.33-1-3.35-1.47a10.59,10.59,0,0,0-1.7-.35,13.55,13.55,0,0,1-3.11-1.88c-.12,0,0,.09-.12,0-.42-.13-.58-.5-.94-.65s-.66-.06-.94-.29-.26-.53-.53-.65c-1.41-.6-2.06.27-3.46-.05l-1.35-.65a8.15,8.15,0,0,0-3.82.53l-.12.12a1.06,1.06,0,0,1,.12.53,2.63,2.63,0,0,1-1.17-.24c-.18-.19-.22-.4-.53-.47a8,8,0,0,0-1.59-.29,5.71,5.71,0,0,1-.23-.65,30.78,30.78,0,0,0-4.75-2.88l-.53-.58-1.12-.47c-.14-.12-.25-.36-.41-.47l-1.47-.59-.64-.59h-.77c-1.26-.25-1.89-.05-2.76-1,0-1.84-.79-2.75-1.35-3.94a15.21,15.21,0,0,1-.41-1.58,5.08,5.08,0,0,0-.88-1.35c-.43-.63-.82-2-1.82-2.06h-1.17c-.95.18-2.18.35-2.88.53a4.1,4.1,0,0,1-1.7-.17,15.53,15.53,0,0,0-3.41.64c-.55,1.07-.95,1.79-.17,2.82l.12-.06c.41-.21.43-.42,1.17-.41.2.34.47.51.59.82.82,2.27-.88,3.35-.94,5.64l.23.06c.72-.67,1.79-.88,2.59-1.47.41-.31.72-.87,1.17-1.29h.47c.42.34.67.42.64,1.23,0,.35,0,.7.06,1.06.5,1.85-.42,1.81-1.52,2.87a12,12,0,0,0-.71,1c-.55.64-1.44,1.08-1.94,1.76-.37.52-1.46,2.36-2.11,2.41-.39.26-1.26-.07-1.7-.18-1.19-.29-2.93-.68-3-2a3.07,3.07,0,0,0,.58-2.17l-.82-.48-1.47.83c-.17.12-.09.39-.23.52l-.76.18a7,7,0,0,1-1.88-1.76h-.42v-.23h-.29a1.71,1.71,0,0,0-1.29-.94c-.87-.33-1.62.63-2.05,1-1,.81-2.56,1.33-3.29,2.35-.51.71-.69,2-1.35,2.53a6.08,6.08,0,0,1-2,.7h-.7a11.42,11.42,0,0,0-2.12,1.47c-.28.21-.66.21-.93.41s-.43.57-.83.7a5.59,5.59,0,0,1-2.23-.23l-1.47-.12c-.43.07-.9.36-1.35.24-.64-.19-1.47-.5-2.28-.71s-1.85,0-2.18-.64a9.07,9.07,0,0,1-.29-3.64c.32-.27.49-.68.94-.83h2.58a11.59,11.59,0,0,0,2.23-.52V179c-.16-.13,0-.1-.17-.18-.79-.76-2.9-.26-3.41-1.47v-.64c.72-.64.95-1.62,1.53-2.41.89-1.23,2.19-2.34,3-3.64.49-.79.4-2.45,1-3.11a8.55,8.55,0,0,0,1.23-2.11c.2-.65-.13-.88-.29-1.24s.15-1.27.29-1.76a18.15,18.15,0,0,0,2.76-1.58c.38-.31.35-.8,1-.88l1-.06c1.27-.43,2.34-.74,2.82-1.82,1.92-.31,1.22,2.09,2.34,2.58a7.11,7.11,0,0,0,2.29-.29h.06c-.15-.92-.31-1.84-.47-2.76a9,9,0,0,1-3.64-.82l-.88.06c-2.22-.33-5,1.28-6.75,2.4-.47.31-1.89.79-2.17,1.18s-.29,1.3-.59,1.7-1.19.71-1.58,1.23-.63,1.06-.94,1.59l-.71.76a12.08,12.08,0,0,1-1.41,2.58c-.32.38-.94.16-1.41.42l-1.4,1.64-.83,1.82c-.36.51-1,.92-1.29,1.52s0,1.07-.7,1.18c-.33.16-.68,0-1.06,0l-1.41.12a7,7,0,0,0-2.58,0c-.67.2-1.06,1.09-1.64,1.4s-.93.79-1.41,1c-.67.29-1.51.37-1.94.88a7.9,7.9,0,0,0-.47,3.88c1,.32,2.21.57,2.7,1.41l.18,1.52a5.25,5.25,0,0,0,1,1.76c-.2,1.49-1.71,2.16-2.76,3l-.35.58c-.48.66-1.13,1-1.58,1.77-.36.58-1.67,1.24-1.53,2.05-.35.07-.43.31-.7.41h-.83l-.94.53c-1,.38-1.84.34-2.52.88l-.53.88a6.33,6.33,0,0,1-2.82,2.41c-.55.18-2-.49-2.87-.12-1.49.65-2.47,1.9-4,2.58-.85.39-1.75.4-2.65.71-.54.19-.86.68-1.29.94s-.61.07-1,.23-.57.46-.82.59c-.79.41-1.92.35-2.7.76s-.92,1.37-1.76,1.71a19.77,19.77,0,0,1-3.17.58l-2.35.06-.82.59-1.06.17-.52.53a5.52,5.52,0,0,1-2.53.12l-.53-.06c-.12,0-.38.3-.53.35-1.88.72-5.74,1.45-6.1,3.35-.26.48,1.33,2.55-.12,3.17l-1.58.53c-.92,1-2.16,3-4.11,1.7-.42-.4-.7-.94-1.12-1.35a33.26,33.26,0,0,0-3.46,0,20.48,20.48,0,0,0-1.53,2c-.3.66-.13,1.74-.94,1.88a17.22,17.22,0,0,1-3-.71c-.19-.33-.42-.4-.47-.88l.18-.88c.19-.5.57-.67.58-1.35l-.06-.06a4,4,0,0,0-2,.47l-3.58.82c-.82.29-1.77,1-2.47,1.23v.3c1.22.82,2.93,1.71,2.41,3.81l-.18.06h-.82c-.2.11-.35.13-.53.24l-.58.7-.88.06c-1.49.28-3.29,0-3.35-1.58-.78-1.46,2-2.48,2.76-2.94l-.06-.24-.94-.29c-.2-.1-.3-.4-.47-.53-.43-.32-.89-.19-1.53-.35-1.37-.33-2.53-.81-3.81-.12-.75.41-2.49,2.9-3.76,2.29l-1.06-.76a8.69,8.69,0,0,0-4-.12c-.44.21-.85.79-1.29,1.06-1.14.71-2.31,1.21-3.46,1.88-.46.27-.72.8-1.29.94l-.88-.12a5,5,0,0,1-1.53-.29c-.47-.26-.74-.87-1.41-.94-.46.29-.88-.06-1.41-.18a11,11,0,0,1-2.58-.59c-.67-.32-1.34-1.12-2.23-1.17a9,9,0,0,0-1.82.94c-.58.5-.81,1-1.35,1.53a1.24,1.24,0,0,1-.88-.18c-.56-.43-1.06-1.11-1.59-1.59s-1.64-.5-1.7-1.76a15.88,15.88,0,0,0,.12-3.4,18.24,18.24,0,0,1,2.93-1.12l2.17-1c.72-.2,1.48.41,2.06.53,1.14.25,2.57.5,3.87.71a8.4,8.4,0,0,1,1.76.12c.69.22,1.36,1,2.24.76,1.49-.43,2.45-1.3,4.05-1.76.93-.27,3.06-.39,3.69-.77,1-.58,1.55-2.17,2.24-3.05.27-.35,0-.84.46-1a3.79,3.79,0,0,1,2.29-.12s3.33,0,3.53,0c1.39-.35,2.61-1.7,3.87-1.71a6.63,6.63,0,0,0,1.59,1.18c.68.24,3-.59,3.81-.59.24.44.75.48.88.82l-.11.12c.37.14.2.32.58.35a1.72,1.72,0,0,0,.53.94c.63.08,1.64-1.1,1.88-1.64.14-.33.07-.59.23-.94s.6-.48.83-.7a4.38,4.38,0,0,0,1.82-.24c.67-.76,1.1-1.68,2.11-2.11.62-.27,1.65.12,2.17.06.76-.09,1.81-.52,2.41-.65s.84.12,1.58-.06a25.77,25.77,0,0,1,4.11-1.12c1.22-.08,1.15,1.38,2.17,1.47l1-.82c.67-.91,1.19-1.93,1.82-2.87.3-.44.24-1.51.82-1.65a.87.87,0,0,1,.53-.88c.37-.19.95,0,1.41-.17s.84-.35,1.23-.48l2.18-.05c.75-1,1.23-2.05,2-3.06.29-.38.81-.56,1.18-.88a4.08,4.08,0,0,0,1-3.17l.23-.06c-.2-1.09.7-1.52,1.17-2.11l.18-.7a15.62,15.62,0,0,1,1.41-1.29c.3-.33.26-.91.41-1.24.07-.16.27-.27.35-.41.42-.75-.09-1.63.53-2.17s2.35-.55,2.64-1.12c.15-.22.1-.78.18-.94l-.12-.11c-.53.19-1.22.81-1.88,1a12.53,12.53,0,0,1-3.29-1.11l-1.76.29c-.79.15-1.42-.32-2-.47a3.71,3.71,0,0,1-.59-2.82.78.78,0,0,0-.41-.11c-.36.37-1.26.84-1.47,1.53l.12,1.29a2.65,2.65,0,0,1-.18,1.17c-.1.52.54,1.64-.58,1.7-.54.24-1.34-.36-1.82-.53-1.75-.6-2.27-.93-2.76-3a2,2,0,0,1,.17-1.11,10.11,10.11,0,0,0,.12-3.06c-.07-.55.17-1.42-.47-1.7l.06.18c-.33,0-.29.37-.59.53-.9.45-3.87.42-4-.42-.56-.88,0-1.34-.17-2.17a1.3,1.3,0,0,0-.65-.12l-1.64.12c-.4-.1-1.07,0-1.53-.06-2.31-.39-3.23-.06-4.81,1.35a2.51,2.51,0,0,1-1.47-.47H94a3.35,3.35,0,0,1-.76-.35h-.71a1.66,1.66,0,0,1-1.58-.7c-.2.13-.14.18-.35.11a2.63,2.63,0,0,1-.47-1.4l.52-.77a5.21,5.21,0,0,0,1.41-1.17,13,13,0,0,1,1.18-1.94,2.94,2.94,0,0,0,.88-2.41c-.21-.85-.57-1.92-.71-2.81l.71-.82a8.26,8.26,0,0,1,1.82-.77c.11-.09,0-.07.17-.12,0,0,1.6-.07,1.82-.11v-.36c-.3-.51-.78-.82-.94-1.4l.12-.94c-.05-.12-.24-.09-.29-.18-.37-.66.2-1.83,0-2.35a7.8,7.8,0,0,1-.35-2l.17-.06c-.3-.39.06-.89.18-1.41l-.12-1-.12-.06-.11.06c-.29.34-.17.59-.41.94-.56.8-3.33,1.58-4.64.94-.52-.25-1-1-1.76-1.17-1.15-.28-3.08.72-3.82.52-.37-.09-.48-.49-.76-.64a17.09,17.09,0,0,1-1.82-.65,10,10,0,0,0-1.18-.76c0-.18.08-.05-.06-.18l-.23.06c-.55-1-.35-2.12-.24-3.46-.07-.35-.15-.7-.23-1.06-.16-.94.26-2.1-.06-3.11a7.62,7.62,0,0,0-.94-2.35c-.23-.24-.58-.35-.76-.64a19.15,19.15,0,0,1-.71-2.29c-.21-.51-.67-.64-.7-1.41a6.27,6.27,0,0,1,1.7-1.29c.36-.14,1.07-.25,1.29-.53,1-1.18.27-2.16.59-3.29.13-.45.91-1.5.82-1.76s0,0-.17-.12c-.23.21-.56.13-.83.18-1.83.32-1.22-.3-1.81-1.59a7.92,7.92,0,0,0-.65-.94c-1.3-1.78,0-2.48.41-4.11.16-.61-.31-1.61-.18-2.23a14.54,14.54,0,0,1,.71-2.11c.14-.33,0-1,.17-1.47.38-1,2.87-1.58,3.88-2.17l.7-.88a11.65,11.65,0,0,1,2.35-1.64c.7-.33,3-1,3.11-1.71a10.84,10.84,0,0,1,1.76-.47c.25-.33.64-.6.77-1.05.22-.76,0-1.4.35-1.94.16-.23.53-.29.76-.47l.59-.94c.45-.61,1.3-.93,1.76-1.52a9.49,9.49,0,0,0,.76-1.24v-.47l.59-.35,1.06-1.29a8.4,8.4,0,0,1,4-.41c.36.11.46.43.7.64l.89.36a6.7,6.7,0,0,1,1,.76c.36.27,1,.5,1.23.88.47.72.15,1.88.18,2.7.35.2.39.36,1,.35.74.55,1.94-.89,2.35-1.11a6.36,6.36,0,0,1,1.41-.36c.64-.39,1.51-.63,2.23-1a12.78,12.78,0,0,0,2.11-1.7c1.33.31,1.71,1.59,2.7,2.17.48.28,1,.23,1.47.47s1.17.79,2,.53a11.16,11.16,0,0,0,1.71-.94c.13-.16.27-.32.41-.47.5-.2,1.1.2,1.47-.36.07-.29.15-.58.23-.88a26.69,26.69,0,0,0,.94-3c.2-.77-.14-1.36.18-2.11l.58-.59.59-1.7c.09-.44-.18-.57-.23-.82a1.77,1.77,0,0,1,.23-1,7.16,7.16,0,0,1,1.11-1.82c.6-.49,1.54-.43,1.59-1.47.21-.44-1.37-2.76-1.82-2.93a4.71,4.71,0,0,0-2,.17l-.77.65-2.4.64-.88.47c-.81.18-1.27-.17-2.06-.29-1.26-.19-2.85.57-4.11.12-.62-.22-1.06-1-1.58-1.29A15,15,0,0,1,111.56,82l-2.64-.18c-.54.06-1,.4-1.7.24s-.89-.5-1.41-.65a12.5,12.5,0,0,1-2.64-.59c-.12-.15-.24-.31-.35-.47a11.37,11.37,0,0,1-2.65-3L98.3,75.4a10.34,10.34,0,0,1-.59-2.23,5.7,5.7,0,0,1,.53-2.64c.17-1.29.35-2.58.53-3.87.14-.76-.6-1.24-.77-1.94-.11-.48.4-.9.24-1.47l-.65-1.88a4.79,4.79,0,0,1-3.46-3.23c-.21-.76.15-1.5-.06-2.34a12.71,12.71,0,0,1-.65-2.18c.36-.27.83-.71,1.41-.58.12,0,.52.21.71.17l.53-.41a15.83,15.83,0,0,1,1.7-.53c.68-.21,1.37.37,1.82.47a5,5,0,0,0,2-.12,14,14,0,0,1,2.59.3,2.83,2.83,0,0,0,1.17-.12,14,14,0,0,1,3.87-.29c.33.58.89,1.68,1.53,1.76a2.83,2.83,0,0,0,1.23,0c0-1.18,0-2.29,1.35-2.23.32-.15.83.09,1.18.06,1.85-.19,3.9-1.41,5.57.17,1.94-1,2.93,0,4,1.35.41.52,1,.75,1.11,1.59-.19.37-.39.74-.59,1.11l-.47.3a6.74,6.74,0,0,0-1.93,2.11c.11.63.23,1.25.35,1.88a8,8,0,0,0,1.41.94,3.68,3.68,0,0,1,1.29.53,8,8,0,0,0,1.82,1.41l1.35.23a25,25,0,0,0,2.52.65c.23,0,.46-.12.77,0,.73.42,1.23,1.56,2.29,1.59.6-.46,1.72-.39,1.82-1.23-1-.71-1.17-2.06-1.41-3.29-.08-.41.17-.43,0-.88l-.94-1.23c.13-.09,0,0,.12-.12-.59-.24-.74-.68-.94-1.23l-.12,0V58c-.16-.19-.55-.69-.47-1.06,0-.11.2-.39.06-.65-.32-.58-1.29-3.48-.94-4.22.13-.32.94-.83,1.23-1.12v-.29a7.1,7.1,0,0,0-2.23-2.06c-.72-.32-1.85-.06-2.4-.7a6.44,6.44,0,0,1-.77-2.88c.58-.59,2-2.39,1.29-3.52a5.16,5.16,0,0,1-.94-1.7c-.08-.38.1-.39.18-.59-.23-.66-.58-1.52-.76-2.17-.09-.32-.38-1.06-.24-1.23-.18-.3-.59-.58-.76-.88s-.08-.65-.24-1c-.11-.12-.23-.24-.35-.35-.19-.39-.15-1.15-.35-1.59-.75,0-1.91-1.35-2.11-2.11s-.09-1.63-.42-2.53a12.33,12.33,0,0,0-1.4-2.17v-.29c-.32-.32-.75-.38-.94-.82s-.24-1.1-.35-1.65c-.16-.73-.5-1.63,0-2.29l1.46-.53.12.12c0-.18,0-.12.12-.23a3.79,3.79,0,0,0,1.47-.3,24.3,24.3,0,0,0,2.93-.29,6.91,6.91,0,0,1,3-.59c1.16.22,2.21,1.07,3.23,1.35s2-.38,2.94-.23a18.82,18.82,0,0,0,2.52.64c.61,0,1.12-.7,1.53-.94,1-.55,2.18-.72,3.05-1.35.59-.42.74-1.39,1.18-2,0,0,1.42-1.27,1.46-1.29l.65-.3a11.54,11.54,0,0,0,1-2.35c.2-.4.62-.78.82-1.17.35-.68.21-1.28.7-1.94.31-.41,1.25-.38,1.76-.58,1.11-.45,2.23-1,3.41-1.47,1-.41.81-1,2.23-.94a3.44,3.44,0,0,0,1.29.88c1.58.87,2.37.09,3.82-.35,1.13-.35,3.1-.27,4.11-.94l1-1.47c.43-.3,1.09-.12,1.52-.29a4.81,4.81,0,0,1,3.11-.65c.23.49.52,1.6,1.18,1.64,1-.6,3-.26,4.28,0s2.4-.69,3.29-.94c.48-.14.82.15,1.17-.06A9.36,9.36,0,0,0,182.24.61c.81-.14,2.26-.85,2.88-.53.75.54,1.64,1,2.41,1.47l.7.24c.82.57,1.46,1.89,2.18,2.52a6.69,6.69,0,0,0,.88.47,4,4,0,0,0,.7,1.35,6.5,6.5,0,0,0,1.35,1.06c.56.26,1,.11,1.35.7s-.49,2.25-.47,2.64l.47.06c.06-.07,2.37-1.69,2.41-1.7.74-.18,1.4.43,1.94.53.29.05,1,0,1.29.06.91.15,2.33-.68,2.81.47a8.6,8.6,0,0,1,.36,3.58c-.16.53-.7,1.48-.36,2.11s1.24.82,1.82,1.29,1.18,1.29,1.88,1.53h1l2.29.76,1.12-.12c2.21.41,3.49-.13,5.63.42a7.79,7.79,0,0,1,3,2.17l.76.35c.44.32.72,1,1.17,1.29s.76.23,1.06.47L224,25l1.52.65a12.72,12.72,0,0,1,2.35,2.23h.29v-.82c.79-.28,1.73-.71,2.41-.94s1.84.71,2.35.82c1.28.29,2,1.8,3,2.58.12.09,1.32.55,1.47.3a5,5,0,0,0,1.76.88c.54.19,1.22-.16,1.7-.3s.81.14,1.29-.05.86-.36,1.24-.47l.11.05c.53-.37.91-1,1.59-1.17l.23.18a2.19,2.19,0,0,1,.83.06l.82.64c.44.12,1,.69,1.52.88,1,.36,1.92,0,2.82.59l.24.41c.23.15.44,0,.53.06a6,6,0,0,0,2.17,1.47l.47.47c.3.15.52,0,.76.17.46.25.89.9,1.41,1.23a10.57,10.57,0,0,1,2.64,2.12c.13.16.28.06.47.17L261.09,39c.15.48-.27,1.71-.18,2.34a16.86,16.86,0,0,1-.41,5.52V48.1c0,.78-.26,1.9-.29,2.65.15,1.23.31,2.46.47,3.69-.18.77-.36,1.53-.53,2.29A13.85,13.85,0,0,1,260,59a4.65,4.65,0,0,0,.12,2.05,19.37,19.37,0,0,1-.35,4.11,10.52,10.52,0,0,1-.41,1.17,21.43,21.43,0,0,0-.18,2.41,7.2,7.2,0,0,0-.35,1.94,34.2,34.2,0,0,1-.71,11.56c-.24.87.21,2.06.12,2.88a5.68,5.68,0,0,1-.29,1.17c-.14.47.15,3.62.17,4.82,0,1.67-.63,3.27-1,5l-.18,4.12.06.76a19,19,0,0,0-.3,1.93,15,15,0,0,0,.24,3.47L256.8,108a14.19,14.19,0,0,1,.12,3.82l.17,1.35a8.23,8.23,0,0,1-.29,2.76v1.29c-.11.55-.2,1.45-.35,2.17v1.29c-.17.87-.47,1.72-.65,2.47l-.06,1.76a12.07,12.07,0,0,0,0,4.28,19,19,0,0,1-.11,3.59c.07,2.13-.68,4.65-1,6.45a4,4,0,0,0,.23,1.53l.06,1.76c.31,1.67-.07,3.57.12,4.82s-.55,2.47-.41,3.87a20.27,20.27,0,0,1-.47,5.05l.06,1.23-.3,1.76a6,6,0,0,0,.3,2.47V167c-.13.61,0,1.3-.18,1.94-.24,1-.78,2.56-.53,3.64-.16,0-.09,0-.11.29.25.34,0,1,.06,1.41.07.91-.27,3.88.41,4.64s3.13.66,4.28,1.53c1.69-.37,2.68-2,3.29-3.29,1.5-.28,5.27.19,5.4,1.35a17.36,17.36,0,0,1,0,3.4c.21.2.22.34.53.47v.06l-.3.06.36,1.53.64,1.11c.07.16.37.85.3.88.23.15.38.19.52.41l.18.53a11.7,11.7,0,0,0,1.64,1.23c.25.2.32.54.53.77.37.38,1,.55,1.35.94.14.27.28.55.41.82.34.45.83.75,1.18,1.23.72,1,3.17,1.11,3.17,2.59.4.8.18,3.47,1.35,3.46A5.33,5.33,0,0,1,281.57,197.57Z" transform="translate(0 0)"/><path class="cls-1" d="M60.43,67.36l.76.06c1,1.52.61,4,1.41,5.17s2.28,1.3,3.82,1.64c.66.14,1.11,0,1.64.29,1.07.69.94,1.79,1.18,3.29.1.64.76,1.32,1.11,2l.12.64.41.53A8.92,8.92,0,0,1,71.47,83c.14.52.64,1,.53,1.64s.52,1.07.23,1.64c-.08.25-.14.35-.41.41a9.65,9.65,0,0,0-2.58,0c-.57.24-.71.64-1.59.65-.22-.38-.76-.74-1.06-1.23s-.11-.65-.29-1.18a11,11,0,0,0-.64-1.06c-.26-.84-.51-1.68-.77-2.52-.34-.51-.89-.88-1.23-1.47-.19-.32,0-.88-.24-1.23-.41-.76-2.19-1.09-2.87-1.76a27.8,27.8,0,0,1-2.82.29c-.17-.26-.33-.18-.59-.35l-.47-.65a12.42,12.42,0,0,1,.71-2.7c.14-.49.26-.94.35-1.35v-.88A8,8,0,0,1,60.43,67.36Z" transform="translate(0 0)"/><path class="cls-1" d="M26.85,103.58c1.09,0,3.26,0,3.64.88.64,1-.43,2.69,0,3.94.09.25.43.39.59.58.91,1.12,2.22,3,.88,4.41-.2.2-.26.5-.53.64s-.63-.13-.94-.12c-.63,0-.62.32-1.41.12a13,13,0,0,1-.82-2.46,1.64,1.64,0,0,1-.53-.83c.13-.08,0,0,.12-.11-.36-.14-.43-.55-.65-.83l-.88-.64a3.36,3.36,0,0,1-.06-2.53c-.16-.08-.09,0-.17-.17a9.37,9.37,0,0,0,.29-2.53Z" transform="translate(0 0)"/><path class="cls-1" d="M62.54,130.17a9.33,9.33,0,0,1,3.29,1.3,31.24,31.24,0,0,0,5.11,2,3.07,3.07,0,0,0,1.53-.23,4.4,4.4,0,0,1,2.29.64c.41.33,1.09,2.66.7,3.41s-1.91,1.59-2.41,2.35a11.28,11.28,0,0,1-1.7,2.52,1.35,1.35,0,0,1-.82-.18c-.08.32-.21.3-.41.47-1.6,0-1.76-1.11-2.82-1.46l-2.23-.24a3.51,3.51,0,0,1-1.41-1.52V138a5.44,5.44,0,0,0-.35-.88c-.15-.21-.34-.16-.59-.29a7.09,7.09,0,0,1-1.64-1.94c-.25-.5.2-.84.29-1.17l.06-.88a6.86,6.86,0,0,0,.59-2.17Z" transform="translate(0 0)"/><path class="cls-1" d="M213.18,171.21l.53.06c.14.16.26.19.35.41.25.4,0,1,.06,1.41s.79,2.37-.35,2.46c-.54.27-1.16,0-1.58.24s-1.17,1.34-1.65,1.41-.88-.21-1-.47a4.31,4.31,0,0,1-.59-2.35c.54-.44,1-1,1.59-1.41C211.42,172.35,212.36,171.87,213.18,171.21Z" transform="translate(0 0)"/><path class="cls-1" d="M152.25,197.39a5.9,5.9,0,0,0,2.29-1.47v-.11c.41-.29.9-.36,1.35-.65s.52-.58.88-.76l.94-.29c.13-.2.27-.4.41-.59l.88-.47a12.62,12.62,0,0,1,1.64-1.29c.56-.28,1.66-1.24,2.29-.88l.47.23.12,1.23c-.1.37-.77,1.26-.59,1.47.34.84.92.84,1.82,1a3.65,3.65,0,0,1,.12,3.46l-.12.53-1.88.29a16.6,16.6,0,0,0-2.58,1.24l.06.41c.2.5.74.69.88,1.23.35,1.38-.78,1.88-.82,3,.19.07.07,0,.17.12l-.17.24c1.05.47,1.3,3.36,1.58,4.58-.57.07-.42.52-1.23.52l-.59-.17a7,7,0,0,1-1.41.82c-.64.42-.91,1.17-1.76,1.41-.37.1-1.3-.35-1.52-.18-.86.42-1.89,1.9-2.82,2.47a18.57,18.57,0,0,1-2.35.82c-.38.16-.75.49-1.18.65l-.93.17-.83.71a8.25,8.25,0,0,1-3.23.17c-.5-.17-1.09-.87-1.76-1.11-1.14-.41-1.77-.2-2.52-1.06a14.46,14.46,0,0,0,.82-2.29,10.46,10.46,0,0,1-.53-1.58c-.19-.34-.39-.67-.58-1a7.3,7.3,0,0,1-.06-2.88c.14-1.25-.7-1.94.17-3.05.53-.67,2.85-1.1,3.7-1.59a20.71,20.71,0,0,0,2.58-1.4,25.2,25.2,0,0,1,2.76-2.41l1.12-.12a11.3,11.3,0,0,0,2.17-1.29l.24.12Z" transform="translate(0 0)"/><path class="cls-1" d="M27.26,217.29a5.59,5.59,0,0,1,2.88,2.29c.19.5.09,1.1.47,1.53s1.41,1,2,1.64l-.11.59c-.34.13-.35.39-.59.59-.54.43-1.17.75-1.7,1.17-.26.21-.25.55-.59.71l-.59.11c-.54-.63-1.3-.07-2-.17s-.69.26-1.12.41l-.94.06c-.27.11-.58.53-.82.7a5.9,5.9,0,0,1-1.76.29L21.8,227c-.27,0-.85.3-1.35.12s-1-.68-1.41-.88-.78-.11-1.11-.36-.29-.43-.47-.58-.54-.09-.76-.24a8.62,8.62,0,0,0-3.06-1.29c-.57-.14-1.34.26-1.76.35l-1.82.06-1.47.41c-.73.19-1.28,0-1.93.24l-1.24.7a14.31,14.31,0,0,0-2,.59l-.82.06c-.71.27-1.15.78-2.17.58a1.42,1.42,0,0,0-.36-.41A5.48,5.48,0,0,1,.73,223c.43-.39,1-.14,1.52-.3.37-.1.52-.5.83-.64.48-.22,1-.06,1.46-.3s1-.61,1.3-.82A13.9,13.9,0,0,1,8,220.17l.64-.47c.7-.28,1.33.09,2-.06l1.41-.59,1.47.12c.54,0,.77-.3,1.23-.35.3.27.75.25,1,.59.71,1,1.1,2.53,1.82,3.17.43.39.94,0,1.7.23a3.59,3.59,0,0,0,.82.18,4.05,4.05,0,0,0,2.23-2.82c.06-.37-.19-1.21-.17-1.82.61-.4,1.38-.09,2.23-.23A8.71,8.71,0,0,0,27.26,217.29Z" transform="translate(0 0)"/><path class="cls-1" d="M88.9,222.52A3.34,3.34,0,0,1,91.78,225c-1.2,1-2.42,4.67-5,2.82a1.13,1.13,0,0,1-.35-1.06c.75-.52.27-1.06.58-2A6.54,6.54,0,0,1,88.9,222.52Z" transform="translate(0 0)"/><path class="cls-1" d="M126.89,222.75c.73,0,.63.28,1,.59s.9.35,1.12.76c.48.89.26,2.08.23,3.17l-.47.41-.93.3c-.45.38-.34.84-1.18.88-.75-.74-2.94-2.59-2.93-3.76a1.55,1.55,0,0,1,0-.23,11.54,11.54,0,0,1,1.24-1.06C125.67,223.43,126.45,223.35,126.89,222.75Z" transform="translate(0 0)"/></svg>