<?xml version="1.0" encoding="utf-8"?>
<!-- Generator: Adobe Illustrator 23.1.1, SVG Export Plug-In . SVG Version: 6.00 Build 0)  -->
<svg version="1.1" id="Layer_1" xmlns="http://www.w3.org/2000/svg" xmlns:xlink="http://www.w3.org/1999/xlink" x="0px" y="0px"
	 viewBox="0 0 51.79 84.87" style="enable-background:new 0 0 51.79 84.87;" xml:space="preserve">
<style type="text/css">
	.st0{fill-rule:evenodd;clip-rule:evenodd;fill:#7CC5C3;}
</style>
<path class="st0" d="M35.2,0c0.59,0.09,1.17,0.18,1.76,0.27c0.51,0.06,0.97-0.35,1.49,0C39,0.66,38.7,1.37,38.8,1.8
	c0.14,0.63,0.55,1.22,0.72,1.8c0.11,0.64,0.21,1.29,0.32,1.93c0.19,0.77-0.22,2.81,0.13,3.47c0.3,0.31,0.6,0.63,0.9,0.94
	c0.03,0.14,0.06,0.27,0.09,0.41c0.25,0.52,0.69,1.11,0.9,1.66c0.19,0.51,0.18,0.99,0.31,1.44c0.12,0.22,0.24,0.45,0.36,0.67
	c0.13,0.4,0.33,1.45,0.31,1.8c-0.02,0.55-0.18,1.03,0,1.62c0.12,0.39,0.14,1.01,0.32,1.48c0.1,0.27,0.27,0.42,0.36,0.72
	c0,0.3,0,0.6,0,0.9c-0.01,0.5,0.34,1,0.49,1.58c0.04,0.13-0.04,0.4,0.05,0.67c0.21,0.65,0.6,1.05,0.85,1.75
	c-0.03,0.29-0.06,0.57-0.09,0.85c0.05,0.29,0.37,0.71,0.22,1.26c-0.08,0.31-0.17,0.7-0.09,0.99c0.09,0.24,0.18,0.48,0.27,0.72
	c0,0.25,0,0.51,0,0.77c0.22,0.52,0.52,1.24,0.63,1.75c0.09,0.43-0.17,0.81,0,1.17c0.15,0.33,0.57,0.63,0.72,1.08
	c0.27,0.8,0.12,1.98,0,2.7c-0.08,0.46,0.39,0.82,0.54,1.17c0.19,0.67,0.39,1.35,0.58,2.02c0.13,0.22,0.48,0.36,0.63,0.58
	c0.18,0.38,0.36,0.75,0.54,1.12c0.29,0.46,1.09,0.42,1.12,1.12c0.3,0.6,0.05,2.38,0.18,2.57c0.07,0.17,0.13,0.33,0.31,0.41
	c0.36,0.18,0.69,0.18,0.9,0.49c0.81,1.22-0.62,3.94-0.95,5.08c-0.21,0.73-0.3,2-0.99,2.39c0,0.01,0,0.03,0,0.04
	c0.04,0.02,0.09,0.03,0.13,0.04c-0.27,0.21-0.33,1.1-0.27,1.31c0.12,0.26,0.33,0.36,0.49,0.63c0.22,0.35,0.12,0.67,0.27,1.04
	c0.08,0.21,0.26,0.33,0.36,0.54c0.08,0.17,0.17,0.91,0.09,1.04c0.14,0.24,0.22,1.02,0.36,1.39c0.12,0.33-0.14,0.55-0.09,0.81
	c0.03,0.19,0.17,1.41-0.18,1.67c0,0,0.16,0.81,0.18,0.85c-0.26,0.59-0.36,1.31-0.36,1.93c1.43,0.66,1.5,1.93,1.17,3.47
	c-0.06,0.28,0.15,0.77-0.04,1.21c-0.5,0.3-0.53,0.01-1.08,0.13c-0.29,0.07-0.84,0.25-1.17,0.31c-0.43,0.08-1.26-0.11-1.71-0.18
	c-0.24,0.03-0.48,0.06-0.72,0.09c-0.43,0-1.4-0.34-1.66-0.23c-0.22,0.09-0.58,0.29-0.86,0.36c-1.04,0.27-2.16-0.14-3.06,0
	c-0.32,0.05-0.82,0.15-1.21,0.23c-0.35-0.03-0.69-0.06-1.04-0.09c-0.3,0.04-0.6,0.09-0.9,0.13c-0.45-0.07-0.81-0.3-1.35-0.27
	c-0.3,0.17-0.6,0.33-0.9,0.5c-0.28,0.07-0.56-0.11-0.9-0.04c-0.59,0.11-1.39,0.37-2.12,0.45c-0.18-0.04-0.36-0.09-0.54-0.13
	c-0.58,0.05-1.17,0.09-1.75,0.13c-0.35-0.12-0.69-0.24-1.04-0.36c-0.63,0.11-1.34,0.55-1.89,0.72c-0.34,0.1-0.68,0.04-0.95,0.09
	c-0.69,0.14-1.46-0.23-2.07-0.09c-0.18,0.04-0.71,0.19-1.04,0.13c-0.46-0.08-0.82-0.22-1.12-0.09c-0.55,0.17-1.11,0.33-1.67,0.5
	c-0.93,0.22-1.88-0.33-2.65-0.13c-0.49,0.12-1.16,0.42-1.49,0.54c-0.33,0.12-2.09,0.23-2.16,0.18c-0.18,0.14-0.32,0.25-0.36,0.54
	c-0.1,0.16-0.05,0.54,0.09,0.72c0.31,0.22,0.63,0.45,0.94,0.67c0.21,0.29,0.32,0.59,0.54,0.86c0.21,0.18,0.42,0.36,0.63,0.54
	c0.25,0.42,0.3,0.96,0.58,1.4c0.54,0.83,0.74,0.94,0.86,2.29c0.03,0.34-0.34,1.01-0.45,1.35c-0.21,0.68,0.13,1.81-0.09,2.25
	c-0.33,0.82-1.3,1.22-2.16,1.44c-0.52,0.13-0.96-0.12-1.35-0.04c-0.36,0.93-1.11,0.84-2.25,1.04c-0.28,0.05-0.75,0.08-0.99-0.05
	c-0.33-0.11-0.8-0.87-0.54-1.35c0.31-0.72,1.57-0.75,1.62-1.4c0.89-1.44-0.98-1.96-1.4-2.83c-0.26-0.54,0.09-1.52-0.45-1.71
	c-0.09,0-0.18,0-0.27,0c-0.65,0.27-0.63,0.93-0.9,1.49c-0.56,1.16-1.17,2.76-2.12,3.69c-1.07,0.11-3.13-0.4-3.46-1.12
	c-0.29-0.48-0.07-1.45-0.14-2.03c-0.08-0.69-0.07-1.38-0.18-2.16c0.03-0.38,0.06-0.75,0.09-1.12c-0.07-0.3-0.12-0.67-0.09-1.04
	c0.04-0.43-0.2-1.47-0.32-1.89c-0.26-0.96-0.09-2.08-0.31-3.15c-0.13-0.62,0.24-1.85,0.13-2.25c-0.09-0.27-0.18-0.54-0.27-0.81
	c-0.12-0.54-0.04-1.22-0.13-1.62c-0.1-0.42,0.07-0.91,0.13-1.26c0.07-0.41-0.16-0.82-0.22-1.17c-0.17-0.86,0.44-1.54,0.22-2.39
	c-0.14-0.57-0.53-1.08-0.67-1.71c-0.01-0.48-0.03-0.96-0.04-1.44C1.15,57.25,1.07,57,1,56.74c0.01-0.24,0.03-0.48,0.04-0.72
	c-0.08-0.96,0.08-1.95-0.31-2.66c-0.2-0.13-0.47-0.14-0.59-0.36c-0.3-0.37-0.07-1.25,0.09-1.8c0.36-1.25,1.17-2.75,0.81-4.54
	c-0.37-1.88-0.02-4.02,0.45-5.76c0.04-0.57,0.09-1.14,0.13-1.71c0.15-0.41,0.3-0.81,0.45-1.21c-0.03-0.35-0.06-0.69-0.09-1.04
	c-0.11-0.53,0.07-1.16,0.13-1.53c-0.01-0.54-0.03-1.08-0.04-1.62c0.28-1.3-0.07-2.88,0.22-4.64c0.07-0.39,0.2-0.73,0.32-1.08
	c0.03-0.08-0.07-0.34-0.09-0.41c-0.01-0.06,0.12-1.05,0.14-1.12c-0.03-0.2-0.06-0.39-0.09-0.59c0.28-0.6,0.01-1.56-0.13-2.21
	c-0.12-0.53,0.16-1.25,0.27-1.62c0.15-0.48-0.08-0.61,0.13-0.99c-0.01-0.02-0.03-0.03-0.04-0.05c-0.03,0-0.06,0-0.09,0
	c-0.02-0.06-0.03-0.12-0.05-0.18c0.05-0.36,0.09-0.72,0.13-1.08c0.17-0.78,0.35-1.64,0.59-2.38c0.11-0.35-0.11-1.08-0.13-1.39
	c-0.06-0.64,0.44-1.09,0.27-1.8c-0.14-0.58-0.4-1.65-0.22-2.52c0.09-0.46,0.04-1.42,0.13-1.89c0.12-0.59,0.25-1.57,0.09-2.43
	C3.44,7.06,3.37,6.71,3.29,6.34c0.02-0.62,0.25-1.08,0.32-1.75C3.69,3.75,3.45,3.11,3.43,2.3C3.59,2.19,3.7,2.15,4.01,2.16
	C4.22,2.03,6.1,1.99,6.35,2.11c0.55-0.24,1.03,0.08,1.71-0.09c0.46-0.11,1.53-0.94,2.2-0.77c0.46,0.12,0.91,0.63,1.62,0.45
	c0.43-0.2,0.87-0.39,1.3-0.58c0.66-0.15,2.13-0.07,2.75,0.04c0.34,0.06,0.86,0.27,1.3,0.22c0.4-0.05,1.06-0.27,1.49-0.41
	c0.42-0.13,1.1,0,1.57-0.04c0.32-0.09,0.63-0.18,0.95-0.27c0.53-0.12,0.95,0.13,1.26,0.22c0.27-0.03,0.54-0.06,0.81-0.09
	c0.22-0.01,0.53,0.22,0.68,0.27c0.54,0.17,0.96-0.18,1.35-0.32c0.23-0.08,1.47,0.11,1.67,0.18c0.05,0.02,0.51-0.21,0.58-0.23
	c0.62-0.17,1.87,0.16,2.47,0.09c0.25-0.05,0.51-0.09,0.77-0.13c0.51,0.08,1.02,0.15,1.53,0.22c0.71-0.22,1.12-0.42,1.71-0.63
	C34.29,0.19,34.86,0.2,35.2,0z"/>
</svg>
