<?xml version="1.0" encoding="utf-8"?>
<!-- Generator: Adobe Illustrator 23.1.1, SVG Export Plug-In . SVG Version: 6.00 Build 0)  -->
<svg version="1.1" id="Layer_1" xmlns="http://www.w3.org/2000/svg" xmlns:xlink="http://www.w3.org/1999/xlink" x="0px" y="0px"
	 viewBox="0 0 67.08 62.46" style="enable-background:new 0 0 67.08 62.46;" xml:space="preserve">
<style type="text/css">
	.st0{fill-rule:evenodd;clip-rule:evenodd;fill:#7CC5C3;}
</style>
<path class="st0" d="M0.31,0c0.97-0.01,1.56,0.17,2.43,0.36C3.3,0.48,3.83,0.35,4.32,0.27c0.52,0.04,1.05,0.09,1.57,0.13
	c0.16,0.27,0.33,0.5,0.72,0.54c0.52-0.44,2.53,0.04,3.42,0c0.48-0.02,1.19-0.35,1.71-0.32c0.17,0.01,0.38,0.15,0.5,0.18
	C12.5,0.8,12.75,0.78,13,0.77c0.32,0.06,0.43,0.16,0.67,0.22c0.62-0.08,1.23-0.15,1.84-0.22c0.66,0.01,1.32,0.12,1.94-0.09
	c0.84-0.29,1.76,0.25,2.38,0.22c0.21-0.01,0.47,0.13,0.67,0.13c0.44,0.01,1.32-0.06,1.89-0.18c0.59-0.12,1.41,0,1.89,0.09
	c0.9,0.16,1.75-0.05,2.57-0.14c0.25,0.08,0.51,0.15,0.76,0.23c0.92,0.24,1.47-0.07,2.21-0.18c0.21-0.03,0.45,0.09,0.67,0.04
	c0.46,0.05,0.93,0.09,1.39,0.13c1.02-0.01,2.04-0.03,3.06-0.04c0.2,0.09,0.39,0.18,0.58,0.27c0.9,0,1.8,0,2.7,0
	c0.18-0.08,0.36-0.15,0.54-0.22c0.81-0.2,1.88,0.33,2.3,0.22c2.58-0.66,5.35,0.23,7.42-0.22c0.64,0.03,1.29,0.06,1.94,0.09
	c0.65-0.12,2.03-0.06,2.79,0.09c0.51,0.1,1.32,0.42,1.98,0.27c0.3-0.12,0.6-0.24,0.9-0.36c0.25,0.02,0.51,0.03,0.76,0.05
	c0.99-0.18,1.53,0.06,2.38-0.09c0.59-0.1,1.27-0.26,1.75-0.27c0.12,0.09,0.24,0.18,0.36,0.27c0.19,0.33,0.52,1.53,0.41,1.89
	c0.28,0.87,1.45,1.37,0.59,2.75c-0.19,0.29-1.82,1.6-2.16,1.8c-0.23,0.08-0.45,0.15-0.67,0.22c-0.27,0.24-0.54,0.82-0.45,1.04
	c0.1,0.25,0.17,0.33,0.54,0.32c0.34,0.07,0.69,0.15,1.04,0.22c0.3,0.14,0.7,0.36,1.04,0.49c0.29,0.12,0.66-0.09,0.81-0.13
	c0.38-0.11,1.07-0.03,1.53,0.04c0.3,0.05,0.41-0.17,0.58-0.23c0.5-0.16,1.85-0.07,2.2,0.18c0.44,0.46,0.19,1.17,0.14,1.8
	c-0.09,1.17-1.26,2.53-1.62,3.96c-0.26,1.06,0.2,2-0.41,2.79c-0.55,0.71-2.02,0.61-2.47,1.44c-0.16,0.36,0.16,0.77,0.22,1.08
	c0.11,0.49-0.19,0.78-0.27,1.08c0,0.53,0,1.05,0,1.58c-0.15,0.3-0.3,0.6-0.45,0.9c-0.21,0.45-0.05,1.02-0.36,1.35
	c-0.21,0.12-0.42,0.24-0.63,0.36c-0.2,0.23-0.39,0.45-0.58,0.67c0.01,0.83,0.03,2.9-0.63,3.24c-2.04,0.59-2.88,2.18-4.14,3.64
	c-0.05,1.07,0.85,1.88,0.45,2.88c-0.62,1.55-2.62,1.71-3.51,2.97c-0.41,0.58-1.33,1.78-1.44,2.52c-0.14,0.88,0.26,1.33-0.09,2.11
	c-0.4,0.91-1.56,0.93-2.07,1.71c-0.26,0.4-0.08,1.1-0.23,1.75c-0.07,0.2-0.15,0.39-0.22,0.58c-0.04,0.39-0.09,0.78-0.13,1.17
	c-0.09,0.28-0.51,0.78-0.45,1.12c0.04,0.22,0.1,0.84,0.27,1.21c0.12,0.28,0.4,0.52,0.49,0.86c0.24,0.89-0.87,1.04-0.72,1.58
	c0.17,0.61,0.68,1.04,0.85,1.71c0.21,0.78-0.1,1.34-0.27,2.07c-0.12,0.51,0.08,0.74-0.04,1.21c-0.4,1.6-0.85,2.44-1.94,3.42
	c-0.92,0.01-1.26-0.31-1.84-0.5c-0.42-0.13-0.64,0.24-0.85,0.32c-0.63,0-1.26,0-1.89,0c-0.59-0.12-2.04-0.47-2.61-0.36
	c-0.5,0.1-0.81,0.25-1.3,0.36c-0.35,0.08-0.67-0.12-0.95-0.18c-0.62-0.13-1.13,0.06-1.67,0.13c-0.44,0.06-0.94-0.35-1.31-0.45
	c-0.82-0.03-1.65-0.06-2.47-0.09c-0.5,0.12-1.13,0.41-1.71,0.54c-0.85,0.18-1.34-0.3-2.21-0.09c-0.21,0.05-0.49,0.21-0.85,0.13
	c-0.14-0.03-0.31-0.13-0.54-0.09c-1.78,0.32-4.45,0.17-6.21-0.32c-0.74-0.21-1.38,0.25-2.16,0.09c-0.84-0.03-1.68-0.06-2.52-0.09
	c-0.99-0.07-1.98-0.15-2.97-0.22c-0.33,0.03-0.66,0.06-0.99,0.09c-0.28-0.04-0.46-0.25-0.67-0.31c-0.31-0.1-0.55,0.05-0.81,0
	c-1.11-0.24-2.62,0.27-3.24-0.59c-0.2-0.34,0.08-0.98,0.13-1.39c0.04-0.29,0.2-0.88,0.13-1.21c-0.04-0.22-0.16-0.68-0.09-1.04
	c0.12-0.57,0.36-1.72,0.05-2.34c-0.27-0.61-0.73-0.58-1.3-0.9c-0.52-0.6,0.07-1.86-0.59-2.29c-0.52-0.31-2.1,1.03-2.79,0.77
	c-0.56-0.22-0.28-1.38-0.99-1.44c-0.16-0.1-0.27-0.1-0.36-0.27c-0.23-0.29,0.04-0.46-0.14-0.85c-0.1-0.22-0.43-0.27-0.5-0.59
	c0.03-0.51,0.06-1.02,0.09-1.53c-0.05-0.81-0.2-2.06,0.09-2.97c0.11-0.2,0.21-0.39,0.32-0.58c0.2-0.94-0.33-2.83-0.22-3.74
	c0.07-0.62,0.25-1.3,0.36-1.84c-0.03-0.23-0.06-0.45-0.09-0.68c-0.13-0.63-0.02-1.33,0.05-1.84c0.05-0.45-0.41-0.75-0.27-1.44
	c0.08-0.24,0.15-0.48,0.22-0.72c0.11-0.42-0.11-0.77,0-1.26c0.08-0.24,0.15-0.48,0.23-0.72c-0.02-0.52-0.03-1.05-0.05-1.58
	c0.08-0.36,0.15-0.72,0.23-1.08c0.08-0.35-0.08-1,0.13-1.44c0.01,0.13,0.03,0.27,0.04,0.4c0-0.01,0-0.03,0-0.04
	c0.15-0.87,0.3-1.74,0.45-2.61c-0.2-0.11-0.62-0.42-0.72-0.63c-0.39-0.67,0.06-2,0.13-2.66c0.03-0.28-0.25-0.46-0.18-0.85
	c0-0.62,0-1.23,0-1.85c0.03-0.17,0.06-0.33,0.09-0.5c-0.13-0.5-0.27-0.99-0.41-1.48c-0.04-0.77,0.6-1.18,0.45-1.98
	c-0.09-0.5-0.43-0.88-0.58-1.35C0.6,13.96,0.56,13.3,0.5,13c0.01-0.27,0.03-0.54,0.04-0.81c-0.01-0.33-0.03-0.66-0.04-0.99
	c0.14-0.73,0.2-1.33,0.09-1.98C0.64,8.28,0.7,7.34,0.76,6.39C0.89,5.9,1.21,5.19,1.08,4.5C0.83,3.23,0.05,1.84,0,0.36
	C0.1,0.24,0.21,0.12,0.31,0z"/>
</svg>
