<svg id="Layer_1" data-name="Layer 1" xmlns="http://www.w3.org/2000/svg" viewBox="0 0 93.95 109.87"><defs><style>.cls-1{fill:#7cc5c3;fill-rule:evenodd;}</style></defs><title>AZ</title><path class="cls-1" d="M28.21,0A3.58,3.58,0,0,1,30,.63a13.68,13.68,0,0,0,2.25.77l.81.4c1.14.34,2,.06,3.15.45a3,3,0,0,1,.67,0,69.6,69.6,0,0,1,7,1.89l1.35.22c.8.3,1.71.29,2.52.54.51.16,1.27.43,1.89.59s1.9-.34,2.79,0,2.25.7,3.15,1.12l.36,0,1.17.36,2.84.4c.61.15,1.27.44,1.84.63.91.31,2.07.24,3.19.5,1.45.33,2.94.79,4.28,1.17h.59c1.09.2,2.73.29,3.73.4,1.58.18,3.18,1.06,4.72,1.31l.63-.05,1.58.32c.64.13,1,0,1.53.09,1.11.24,2.37.72,3.37,1l1.08.09.64.27,1.34,0c.56.19,1.49.41,2.12.59a13.4,13.4,0,0,0,2,.18c.45-.07,1.08-.14,1.26.13.37.54-.22,1.14-.37,1.62v1.26c-.08.47-.17.93-.27,1.4v.94c-.21,1.09-.71,2.33-.94,3.33-.34,1.48-.14,3.08-.54,4.37-.18.57-.74,1-.95,1.48s0,1.79-.09,2.43c-.24,1.16-.24,2.4-.54,3.56,0,.45,0,.9,0,1.35a13.43,13.43,0,0,1-1.21,2.43A29,29,0,0,0,89,41v.77c-.58,2-.94,3.94-1.35,6v1.71l-.23.45c-.27,1.09-.13,2.29-.31,3.15-.13.48-.27,1-.41,1.44-.1.15-.29.23-.36.45l-.13,1.35c-.12.51-.26,1.06-.4,1.62s-.07,1.32-.09,2c-.38,1.81-.44,3.45-.9,5.35q0,.72.09,1.44c-.13.61-.36,1.35-.5,2-.21.93.3,1.95,0,2.65-.53,1.5-1,3-1.57,4.42-.36.9.13,2-.09,3.1-.39,1.9-.55,3.84-1,5.72V86c-.25.65-.51,1.29-.76,1.94-.25.93.33,2,.09,3.1a4,4,0,0,0-.23,1.53l-1.07,2.07V99c-.4,1.87-1,3.29-1.4,5.08h0a.65.65,0,0,0,0-.13c-.09.55-.38,1.09-.5,1.57v1.26a15.08,15.08,0,0,1-.49,2l-.09.41-.36.22c-.12.17-.08.3-.27.41-.48.31-1.51-.12-2-.18-.38.17-1.23-.15-1.8-.18a8.74,8.74,0,0,1-1.93-.54c-.86-.27-1.85-.08-2.8-.36,0,.06,0,.12,0,.18-.44-.28-1.07.12-1.66-.05-.28-.07-.54-.23-.86-.31l-1.17,0a4.26,4.26,0,0,1-.54-.18l-.68,0a6,6,0,0,1-1.57-.14,13.72,13.72,0,0,1-2-.68c-.47-.19-1.25,0-1.76-.26a10,10,0,0,0-2.29-.81c-.32-.06-1-.23-1.13-.14a3.62,3.62,0,0,0-.94-.41,11.52,11.52,0,0,0-2.3-.31c-.64-.26-1.28-.25-2-.49a5.51,5.51,0,0,0-.59-.28c-.57-.13-1.25.14-1.53.05s-.19-.28-.35-.4a13,13,0,0,0-1.58-.63c-.19-.11-.23-.28-.4-.36l-.81-.05-.32-.27c-.1,0-.27,0-.45,0a9.36,9.36,0,0,1-1.44-1.17c-.25-.22-.91-.27-1.21-.45-.14-.09-.87-.8-.77-.9l-.49-.32c-.1-.19-.19-.39-.28-.58a5.43,5.43,0,0,0-.85-.81l-.54-.23-.18-.27-.54,0a5.56,5.56,0,0,1-1-.86L35,97.16c-.15-.09-.25-.32-.41-.41a14.19,14.19,0,0,1-1.48-.67L33,95.81a.86.86,0,0,0-.32,0,10.32,10.32,0,0,0-1-.85s-.23,0-.36,0c-.47-.26-1-.47-1.4-.76a7.72,7.72,0,0,0-.62-.54c-.2-.11-.43,0-.59-.18s-.15-.46-.45-.54l-.18,0c-.28-.55-1-.65-1.21-1.26a1.31,1.31,0,0,1-.54-.09c-.08-.15-.16-.3-.23-.45a13.56,13.56,0,0,1-1.53-.63L24.3,90l-.85-.31c-.53-.35-1-1-1.45-1.26-.12-.08-.45-.2-.54-.14a14,14,0,0,0-1.93-1.13,10.2,10.2,0,0,1-1.44-.53c-.41-.24-.82-.73-1.21-1H16.6c-.36-.16-.54-.57-.85-.77a10,10,0,0,1-1.13-.63V84l0,0a4.37,4.37,0,0,1-1.49-1.12A1,1,0,0,1,13,83c0-.19,0-.16-.17-.22h-.41c-.17-.06-.45-.4-.63-.5l-.67-.13c-.6-.27-1.16-.88-1.71-1.13l-.77-.18c-.4-.14-.68-.52-1-.67L7,80l-.76-.71a7,7,0,0,1-1.62-1.31c-.26-.36-.1-.9-.5-1.12-.82-.48-1.37-1-2.25-1.4-.16-.08-.69-.45-.8-.36s-.2.16-.5.18A2.16,2.16,0,0,1,0,74.29c.47-.85.78-3,1.44-3.55s1.72.06,2.56-.4c1.17-.64.88-1.24,1.54-2.21.25-.37.66-.63.76-1.17a4.6,4.6,0,0,0-1-.54c-.48-.14-1.23,0-1.66-.13-.82-1.37,0-2.3.18-3.65.13-1.06-.43-2-.18-3.15.46-.19.7-.71,1.08-1l.68-.18A10,10,0,0,0,7.79,57c.31-.56.06-1.42.22-2a16.35,16.35,0,0,0,.49-1.71c0-.24,0-.48,0-.72l.27-.63c0-.19,0-.39,0-.58.11-.41.49-.68.67-1l.36-1.12a5.06,5.06,0,0,1,1.53-1.49l.85-.22c.29-.14.5-.55.77-.68l.81-.09a6.84,6.84,0,0,0,1.4-.81c.05-.24.12-.48.17-.72A15.62,15.62,0,0,0,14,43.83,13.42,13.42,0,0,0,13.81,41c-.29-.93-1.34-1.79-1.26-2.88-.49-.31-.37-.7-.67-1.21l-.36-.32c-.3-.52-.92-3.58-.58-4.18.46-.84,1.68-1.21,1.93-2.16a4.86,4.86,0,0,0-.14-1.71c0-.28,0-.54,0-.81s-.34-.28-.32-.59a10.34,10.34,0,0,1,.68-2.16,2.08,2.08,0,0,0-.05-.81s.17-.73.18-.81c.2,0,.15,0,.23-.13l-.23-1,.05-.05.18.09V22c-.1-.05-.07,0-.13-.1a.33.33,0,0,0,.13-.17c-.19-.2,0-1.1.13-1.49a25.57,25.57,0,0,0,.59-2.56A5,5,0,0,0,14,16,9.89,9.89,0,0,1,14.45,14c.4-.25,2.25-1.33,2.88-1s.46,1.26,1.62,1.26c.31-.19,1.37-.14,1.57.22s.06,1,.23,1.44a2.34,2.34,0,0,0,1.48.77c1.48-.73,1.51-1.8,2.21-3.29,0-.4.08-.81.13-1.21.21-.52.67-1,.9-1.44a8.22,8.22,0,0,1,.32-1l.44-.63c.28-.65-.09-1.45,0-2,.07-.41.38-.65.41-1.12l-.09-.09h.14c.7-.83.38-3.09.67-4.32.1-.44,0-.87.18-1.22A6.06,6.06,0,0,1,28.21,0Z" transform="translate(0 0)"/></svg>