<svg id="CA" xmlns="http://www.w3.org/2000/svg" viewBox="0 0 98.68 195.24"><defs><style>.cls-1{fill:#7cc5c3;fill-rule:evenodd;}</style></defs><title>CA</title><path class="cls-1" d="M95.22,157.1c0,.62,1,1.86,1.31,2.34-.22.36.53,1.46.44,1.9-.18.93-.55,3.19-.09,3.95.23.26.45.52.68.77s.56.15.72.36.21.85.4,1c-.21.19-.1.71-.22,1-.19.44-.73.55-.95.94s-.07.66-.31.86c-.64.53-1.49.09-2.25.4-.33.14-.39.55-.63.77s-.5.3-.77.5c-.56.41-.46,1.89-1,2.15a1.94,1.94,0,0,1-.8.14c-.15.36-.45.77-.64,1.17,0,.24,0,.48,0,.72l-.36,1.08c0,.29.09.57.14.86a9.21,9.21,0,0,1-1,1.93c-.28.38-.62.21-.94.45s-.42.81-1,.86h-1c-.08.16-.21.14-.31.27s-.21.5-.32.76c-.2.56.14,1.62,0,2.43a7.44,7.44,0,0,0-.45,2.48,4.34,4.34,0,0,0,2,.54,1.74,1.74,0,0,1,.53.81c.09.33-.13.58-.18.76l-.09.9a4.66,4.66,0,0,1-1.52,2.43c-.64.37-1.44,0-2,.36a4.67,4.67,0,0,0-.72.54c-.38.41-.22,1.14-1,1.17-.86.53-2.83,1-3.37-.09-.27-.59.67-.87.31-1.8a6.84,6.84,0,0,1-1.13-.32,4.87,4.87,0,0,0-1-.63,5.94,5.94,0,0,1-1.35-.22l-.45-.54a8.57,8.57,0,0,1-2.34-.41l-.86.05-.4-.18-1.22.09a13.14,13.14,0,0,1-1.75-.36l-.54,0-1.53-.14c-.69-.21-1.13-.88-1.84-1.12l-1.18-.1c-1.3-.44-2.88-.28-4.32-.62-.34-.09-.7.18-1.21,0a25.72,25.72,0,0,1-3.15-1.13c-1.68-.75-4.84-.45-6-1.66a1.42,1.42,0,0,1,.22-.81c-.23-.1-.29-.28-.45-.45a13.87,13.87,0,0,0,0-2.88l.09-1.13a2.56,2.56,0,0,1-.18-1,17.31,17.31,0,0,0,.13-4c0-.31.14-.42.18-.63,0-.41-.09-.82-.13-1.22-.34-1-1.19-1.5-1.67-2.34a16.42,16.42,0,0,1-.63-2.25c-.13-.37-.49-.56-.67-.85s-.09-.37-.14-.54c-.23-.29-.69-.45-.94-.72s-.41-.87-.81-1.17l-1-.63c-.58-.63-.73-2.64-1.45-3L40,161.25c-.81-.19-1.74.38-2.07-.37-.66-1,.75-1.72,1-2.25,0,0-.6-2.58-.67-2.65s-.32-.23-.46-.36a3.38,3.38,0,0,1-2.34-.09c-.3-.22-.35-.66-.72-.86s-.88-.54-1.3-.76-1.1-.23-1.53-.45-.56-.85-.77-1.17a9.81,9.81,0,0,1-1.08-3.2v-1c-1.15-.62-1.25-2.49-2.29-3.06-.52-.29-.92.24-1.44,0-.81-.29-1.74-1-2.52-1.3l-.41,0a3,3,0,0,1-1.75-1c-.06,0,0,.05-.09,0-.33-.25-.44-.77-.81-1-.68-.41-1.39-.46-1.76-1.17a7.67,7.67,0,0,1-1.3,0c-.79-.13-1.15-.38-1.89-.45a3.12,3.12,0,0,0-.59-.67l-.4-.09a6.33,6.33,0,0,1-1-3.6c.22-1.1,1-1.45,1.21-2.39.12-.45-.06-.73,0-1.12a11.26,11.26,0,0,1,.68-2c.19-.37.1-.65.44-.85,0-.12-.08,0,0-.14a1.88,1.88,0,0,1,.49-.85c-.05-.28-.12-.55-.18-.82a1.68,1.68,0,0,1-1.21-.9l.09-.62a1.51,1.51,0,0,1,.18-.09,3.29,3.29,0,0,1,0-1.22c-.12-.06-.06,0-.13-.09-.39-.53-.16-1.44-.54-2.07a8.87,8.87,0,0,0-1.26-1.62c-.33-.24-.83-.42-1-.81v-.67c-.26-.56,0-1-.09-1.62s-.42-1.12-.54-1.67c-.09-.39,0-.7-.09-1.08a9.65,9.65,0,0,0-1-1.75c-.16-.35-.18-.8-.41-1.27-.12-.25-.47-.44-.58-.71-.34-.85-.08-2.65-.23-3.65,0-.32,0-.63.05-1a2.37,2.37,0,0,0-.86-1.26c-.38-.23-.78-.13-1-.53a10.11,10.11,0,0,1-.46-3.38c.12-.55-.28-.81-.18-1.3a4.06,4.06,0,0,1,.45-1.17s-.06-.41,0-.5a4.57,4.57,0,0,0,.72-.4c0-.17.09-.34.13-.5.26-.28.51-.57.77-.86s.86,0,1.08-.08a5.17,5.17,0,0,0,1-.68,7.63,7.63,0,0,1,.4-.81c-.33-.45.08-1.15.14-1.66a11.28,11.28,0,0,1-1.18-.32A11,11,0,0,1,9.05,91.9c-.13-.31-.24-.63-.37-.94s-1.08-.52-1.44-1a2.14,2.14,0,0,1-.4-1.13c0-.06.09,0,0,0a12.4,12.4,0,0,1-.94-2.39c0-.37,0-.75,0-1.12a4,4,0,0,1-.4-1.53c.19-1.18.76-2.38,1-3.51a1.49,1.49,0,0,0-.18-1L6.61,78c.21-.61.36-1.46.63-2,.17-.33.5-.44.54-.94a9.26,9.26,0,0,0-.63-1.21c-.22-.29-.62-.42-.81-.77a6.52,6.52,0,0,0-.49-1c-.39-.53-1.26-.65-1.39-1.44-.2-.36,0-1.1.17-1.44s0-.66,0-1a3.83,3.83,0,0,0,.22-2.07A16.43,16.43,0,0,0,4,62.79l.09-.23-.22-.45c-.25-.93-.24-1.64-.45-2.61-.08-.38-.88-2-.68-2.34-.18-.36-.52-.78-.67-1.17l-.18-1A13.43,13.43,0,0,0,.63,52.71c-.21-.1-.57-.06-.63-.46a11.1,11.1,0,0,0,.36-2A14.9,14.9,0,0,1,1,48.84c.27-.69.42-1.43.68-2.12,0-.2,0-.39,0-.59.14-.48.36-1.2.46-1.71s-.12-.87,0-1.39.91-.76,1.13-1.26a10.93,10.93,0,0,0,.44-2.39c.06-.27-.13-.53-.09-.81a3.12,3.12,0,0,0,.14-1.44,9.31,9.31,0,0,0-.36-1.57c-.14-.32-.49-.71-.59-1s0-.41,0-.62-.33-.62-.41-.9v-.41c-.05-.17-.25-.39-.31-.59-.11-.38-.05-.82-.18-1.12a3.54,3.54,0,0,0-1-1.26,4.33,4.33,0,0,1-.89-2.16,9.6,9.6,0,0,1,.49-3c.13-.32.52-.49.58-.85-.2-.6,1.23-2.69,1.67-3,.27-.18,1.18-.26,1.44-.45s.33-.63.58-.9l.77-.63a13.25,13.25,0,0,0,1.48-2.47c.22-.38.68-.53.9-1s.27-1.05.54-1.52L9.13,13c.09-.16,0-.44,0-.54a3.25,3.25,0,0,1,.63-1.12c-.16-.09-.14-.13-.14-.37s.16-.48.23-.71a5.36,5.36,0,0,0,.9-.5c-.06-.25.56-.85.68-1.17s0-.48,0-.72a14.42,14.42,0,0,0,.18-3.33c.17-.07.09,0,.14-.18-.31-.16-.4-.83-.28-1.17s.39-.47.63-.72l.59-1c.05-.22.09-.44.13-.67s.38-.21.55-.36S13.73-.06,14,0a5.37,5.37,0,0,1,1.21.22,9.65,9.65,0,0,1,1,.77c.29.19.5.13.77.36.22-.17,1.15.31,1.35.45a5.87,5.87,0,0,1,2.34.63h.54c.49.15,1.13.48,1.62.58.08,0,.23-.1.27-.08.86.34,1.92.77,2.61,1,.18.07.64,0,.9.14.05-.15,0-.06.09-.14.08.23.28.23.4.41a.51.51,0,0,1,.27-.09c.06.14,0,.15.19.22,0,0,1,.29,1,.31s0,.06,0,.1c.2.12.62,0,.77.13v0a3.11,3.11,0,0,0,1.08.45A8.08,8.08,0,0,0,31.77,6c.39.18.86.55,1.21.76.19.11,1,.17,1.31.31a2.39,2.39,0,0,1,.59.5,9.53,9.53,0,0,0,1.43.68c.13.06.83.39.72.44.93.3,1.6.33,2.43.68,1,.41,1.81.86,2.66,1.22l1.22.18,1,.31L45,11a10.44,10.44,0,0,1,2.2.63c.33.14,1.21.1,1.8.31a15.12,15.12,0,0,1,2.61,1.58,5.23,5.23,0,0,0,1.13.63c.38,0,1.21.41,1.3.22a11.41,11.41,0,0,0,1.76,1,4.54,4.54,0,0,0,2.42,1,4.49,4.49,0,0,0,1.31.44l.36,0a19.41,19.41,0,0,1,2,.9c.36.21.83.17,1,.45.82,1.11.37,1.8-.08,3-.53,1.35-.76,2.65-1.31,3.82A4,4,0,0,0,61,26.2c-.44.08-.4,1.05-.54,1.62a19.62,19.62,0,0,1-.68,2.66h-.18a10.09,10.09,0,0,1-.76,2.29c-.27.71-.25,1.41-.54,2.07s-.68,1.44-.9,2.12a6,6,0,0,0-.23,1.84,2.25,2.25,0,0,1-.49,1.12c-.16.25-.13,1.12-.32,1.58q-.26.36-.54.72c-.14.24-.45.91-.36,1.17-.29.66-.72,1.14-1,1.8-.19.5-.17.9-.36,1.4a47.67,47.67,0,0,1-2.07,4.9c-.44.9,0,2-.35,2.93-.47,1.42-1.3,2.45-1.72,3.91a8.27,8.27,0,0,0,0,1.08,16.16,16.16,0,0,1-1.31,3.69l-.31,1.21c-.09.19-.33.34-.45.5a7.35,7.35,0,0,0-.54,2.3c.06.36.58.82.76,1.12.54.84,1.29,1.83,1.94,2.7a.78.78,0,0,1,0,.49c.22.42.42.85.63,1.27.18.7.37,1.41.54,2.11a12.5,12.5,0,0,0,1.54,2.07c.29.4.39.92.72,1.3a4.83,4.83,0,0,1,.58.68c1.16,2.22,2.07,4.59,3.37,6.75.08.24.15.48.23.72s.39.6.59.9c.22.51.44,1,.67,1.53s.74.57,1,.86a7.07,7.07,0,0,1,.86,1.79l.94,1.31c.33.57.5,1.1.81,1.71s.84,1.19,1.13,1.85a17.25,17.25,0,0,0,1.25,2.79c.24.35.64.61.86,1a22.75,22.75,0,0,0,1.3,2.62,11.67,11.67,0,0,1,1.4,1.66c.58,1.09.54,2.51,1.22,3.47.35.5.91.86,1.25,1.34a13.66,13.66,0,0,1,1.09,1.71c.17.45.35.91.53,1.35A16.88,16.88,0,0,1,74.7,115l.9,2.2.18,1.35a9.43,9.43,0,0,0,1.71,2.07l.27.14a6.56,6.56,0,0,1,.81,1.75c0,.18,0,.36,0,.54a8.33,8.33,0,0,1,.54,1.08c.09,0,0-.07.09,0,.42.41.51,1.15.81,1.67a30.87,30.87,0,0,1,2.07,3c.31.66.23,1.56.59,2.16l.85.86c.45.61.82,1.33,1.22,2a25.22,25.22,0,0,0,1.4,2.57c.12.27.23.54.36.81a12,12,0,0,1,1.52,1.75c.65,1.19.58,2.83,1.17,4.15a30.4,30.4,0,0,0,1.71,2.74,18.39,18.39,0,0,0,.86,1.85c.66.84,1.46,1.69,2.07,2.6.36.55.45,1.15.81,1.72a5,5,0,0,1,.94,1.71c.15.78-.57,1.59-.76,2.15S94.7,157.05,95.22,157.1Z" transform="translate(0 0)"/><path class="cls-1" d="M17.37,146.93c1.78,0,1.93,1,2.38,2.25a4.86,4.86,0,0,1,.32,1.08c-.11.16-.21.31-.32.45a4.8,4.8,0,0,1-2,.19l-.36-.23-.58.18a1.44,1.44,0,0,1-1.31-.81,8.65,8.65,0,0,1-.4-2.29c.14-.15.17-.32.36-.41a4.35,4.35,0,0,1,1-.36C16.83,146.88,17.11,147.12,17.37,146.93Z" transform="translate(0 0)"/><path class="cls-1" d="M21.06,147c1.55.1,2.06,2.44,3.24,3.11.55.31,1.69.35,1.93.94a.55.55,0,0,1,0,.59c-.06.14,0,.11-.17.17-.79.54-1.86-.21-2.39-.35s-1.28.08-1.8-.19c-1.11-.56-1.69-2.39-1.66-4a.54.54,0,0,1,.44-.13Z" transform="translate(0 0)"/><path class="cls-1" d="M35,163.81a4.27,4.27,0,0,1,2.88,2.29c.39,1.21,0,2.52-1.26,2.52a2.52,2.52,0,0,1-1.49-1.84c0-.18,0-.36,0-.54l-.36-.4a3.53,3.53,0,0,1-.4-1.49C34.56,164.16,34.76,164,35,163.81Z" transform="translate(0 0)"/><path class="cls-1" d="M32.22,170.88l.45,0c1,.37,1.4,2.51,1.89,3.46.16.32.69.77.58,1.18a.59.59,0,0,1-.58.4c-.32-.19-.49,0-.9-.09-1.14-.37-2.65-1.48-2.34-3.06.15-.74-.05-1.49.54-1.75Z" transform="translate(0 0)"/></svg>