<svg id="Layer_1" data-name="Layer 1" xmlns="http://www.w3.org/2000/svg" viewBox="0 0 99.86 81.07"><defs><style>.cls-1{fill:#7cc5c3;fill-rule:evenodd;}</style></defs><title>CO</title><path class="cls-1" d="M12,0a7.39,7.39,0,0,1,2.34.54,4.91,4.91,0,0,0,1.53,0c.72.24,1.5.44,2.2.72l.05-.05c.81-.14,1.82.45,2.7.32.44-.07.86-.32,1.35-.18s.64.08,1.12.22l.94.45a12.13,12.13,0,0,0,1.45.14l.53-.09a17.54,17.54,0,0,1,2,.18l.91,0c.38.17,1,.21,1.39.41.16.07.27.33.41.4.36.2,1,.16,1.53.36a3.46,3.46,0,0,0,.72.36l.62,0A4.08,4.08,0,0,0,34.88,4h1a17.69,17.69,0,0,0,2,.67l.59-.18.4.14a3.94,3.94,0,0,1,1.8-.14,2,2,0,0,1,1-.09c.54.18,1.3.42,1.63.54l.49-.09a12,12,0,0,0,2.61.77c.33,0,.65-.14,1,0s.85.25,1.21.32.75-.18,1.31-.05c1.45.35,2.46,1,3.82,1.35.48.11.8-.18,1.26-.09,1,.2,2.13.33,3.11.45l.31-.09a5.28,5.28,0,0,1,1.35.09l2.29.59,2.25.27,1.17-.14c.7.19,1.37.38,2.12.54a5.64,5.64,0,0,0,1.76-.09l.72.14c1,.12,2.2.13,3.14.31s1.66-.25,2.43-.13c.39,0,.93.23,1.36.31s1-.13,1.44.05c.28.1.62.39.94.49A4.73,4.73,0,0,0,81,10a7.18,7.18,0,0,1,1.84.45c.74.16,1.69-.22,2.52-.09s1.86.35,2.47.49a17.83,17.83,0,0,1,1.85.32l.77-.09a10.54,10.54,0,0,1,1.17.22h1.21c1.95.29,4.62.21,6.62.95a3.06,3.06,0,0,1,.45,1.12l-.27,1.26c0,.77,0,1.53,0,2.3-.12.54-.33,1.26-.45,1.75A11.7,11.7,0,0,0,99,22c0,.43,0,.87,0,1.3-.25,1.2-.36,2.72-.67,4.05,0,.65-.06,1.29-.1,1.94a8,8,0,0,0-.31,2.07,5.47,5.47,0,0,1,0,2l-.22.45.09,1.57c-.07.51-.22,1.24-.31,1.71,0,.92-.06,1.83-.09,2.75-.2.81-.59,1.6-.81,2.52a3.92,3.92,0,0,0,.09,1.08c.05.39-.14.36-.09.81,0,.66,0,1.32,0,2-.14.91-.11,2.31-.31,3.33-.11.54-.22,1.08-.32,1.62-.15,1.14.07,2.52-.09,3.73a20.14,20.14,0,0,1-.54,2.84c0,.36,0,.72,0,1.08-.13.54-.22,1.2-.36,1.84,0,.2,0,.39.09.59s0,.69,0,1a9.56,9.56,0,0,1,.09,2.21,59.89,59.89,0,0,1-1,6.16,8.07,8.07,0,0,0,0,1.58c-.21.35,0,.92-.18,1.57s-.39,1.22-.54,1.8c-.24.94.26,2.18.4,3.06.08.45-.36.65-.4,1a.62.62,0,0,1,0,.63c-.21.61-.37.54-1,.67a6.74,6.74,0,0,1-2.7-.18c-.71-.16-1.22.23-2,0l-.5-.31c-1-.29-2,.13-2.88-.05-.29-.06-.7-.27-.95-.31-.67-.13-1.52.17-2.2,0s-1.5.44-2.38.23c-.56-.13-.9-.65-1.4-.81l-1.76.09a10.5,10.5,0,0,1-1.3-.36l-1.08.18a9.29,9.29,0,0,1-2.79-.27c-.87-.19-1.73-.49-2.66-.72H67c-.67-.15-1.57-.26-2.2-.41s-1.61,0-2.07-.13l-1,.09c-.61-.12-1-.07-1.81-.27l-1.08-.45h-2c-1.41-.3-3-.37-4.18-.77s-1.79.3-2.61.14c-1.42-.29-2.58-.62-4-1l-.95,0c-.62-.11-1-.3-1.48-.4-1.25-.28-2.73.14-3.92-.23l-3.1-1A11.52,11.52,0,0,0,34.07,74l-1.62-.49c-.91-.26-1.75,0-2.79-.23l-1-.27H27c-1.17-.29-2.25-.58-3.42-.85-.61-.14-1.17.17-1.62.09-.7-.14-1.39-.17-2.12-.36a3.41,3.41,0,0,0-1.53.09l-1.21-.27-1.85-.18a8.53,8.53,0,0,0-1.35-.68c-1-.21-1.77-.19-2.65-.4-.09,0-.16.13-.32.09s-.23-.22-.31-.27c-.37-.24-.84,0-1.4-.18-.28-.09-.66-.35-.95-.45a5,5,0,0,0-1.66.22,2.89,2.89,0,0,1-2-.49H4c-.58-.2-1-.53-1.57-.77-.22-.09-.21.06-.37,0a3.32,3.32,0,0,1-.81-.36C.75,68,0,68.24,0,67.41c.23-.17.06-1.18.27-1.53,0-.06.23-.15.27-.22s-.12-.19-.13-.23a1.93,1.93,0,0,1,.27-1S.6,63.5.81,63.36l0,0v-.18c0-.08,0-.15,0-.23l-.13,0v-.14a1.38,1.38,0,0,0,0-.76A6.66,6.66,0,0,1,1.44,60c-.08-.08-.05,0-.09-.18.5-.6.17-1.18.4-2l.19-.27c.05-.22-.11-.23-.14-.32a2.53,2.53,0,0,1,.05-1.08c.11-.62.4-1.28.54-1.93,0-.27-.24-.77-.14-1.17.32-1.31.41-2.77.68-4.1.08-.4-.1-.67-.05-.94s.29-.39.36-.54,0-.21,0-.32c.22-.73.13-1.25.36-2.16l.58-1.26a15.82,15.82,0,0,0,.54-3.69c.13,0,.06,0,.09-.18-.35-.59.18-1.37.27-1.8A2.76,2.76,0,0,0,5,37.26a6.77,6.77,0,0,1,.18-1.12c.09-.67.31-1.74.45-2.43,0-.39,0-.78,0-1.17a9.78,9.78,0,0,0,.4-1c0-.2-.08-.31-.09-.4a6.23,6.23,0,0,1,.4-1.53l-.13-.23a1.89,1.89,0,0,1,.32-1.26v-.49l.31-.77c.11-.42-.26-1,.09-1.57.08-.06.12-.05.18-.14-.12-.14,0-.51,0-.72s.15,0,.18-.27a15,15,0,0,0,.27-1.53c.23-1,.33-1.86.59-3,.17-.79.69-2,.9-3l-.09-.45C9,15.62,9,15,9.14,14.45c0-.15-.06-.3-.1-.45.05-.54.1-1.08.14-1.62.21-.73.67-1.41.9-2.16V9.14c.07-.84.42-2.11.54-2.79.28-1.55.13-3.33.72-4.59V1.22a1.29,1.29,0,0,1,.5-1.17Z" transform="translate(0 0)"/></svg>