<svg id="Layer_1" data-name="Layer 1" xmlns="http://www.w3.org/2000/svg" viewBox="0 0 300.08 31.28"><defs><style>.cls-1{fill:#f9f9fa;}</style></defs><title>invalid_note</title><path class="cls-1" d="M27,14a1.07,1.07,0,0,0,1.06,1.08.9.9,0,0,0,1-.89c0-.76-1-1-1.84-1.27-1.72-.62-2.67-1.41-2.67-3.16A3.39,3.39,0,0,1,28,6.45a3.25,3.25,0,0,1,3.47,3.33H29.16A1.06,1.06,0,0,0,27,9.71c0,.77.93.9,1.8,1.16,1.82.54,2.67,1.56,2.67,3.16a3.38,3.38,0,0,1-3.45,3.3A3.24,3.24,0,0,1,24.57,14Z" transform="translate(-24.57 -6.45)"/><path class="cls-1" d="M38.78,6.45a5.32,5.32,0,0,1,5.49,5.44,5.49,5.49,0,0,1-11,0A5.32,5.32,0,0,1,38.78,6.45Zm0,8.51a2.91,2.91,0,0,0,3-3.07,3,3,0,1,0-5.91,0A2.89,2.89,0,0,0,38.78,15Z" transform="translate(-24.57 -6.45)"/><path class="cls-1" d="M46,6.79h4.27c2.19,0,3.62,1.32,3.62,3.24a3,3,0,0,1-2.42,3.17L54.24,17H51.11l-2.6-3.81V17H46Zm4.5,4.42A1.08,1.08,0,0,0,51.45,10a1.08,1.08,0,0,0-1-1.12H48.51v2.3Z" transform="translate(-24.57 -6.45)"/><path class="cls-1" d="M55.12,6.79h4.27C61.58,6.79,63,8.11,63,10a3,3,0,0,1-2.42,3.17L63.35,17H60.22l-2.6-3.81V17h-2.5Zm4.51,4.42A1.08,1.08,0,0,0,60.56,10a1.08,1.08,0,0,0-1-1.12H57.62v2.3Z" transform="translate(-24.57 -6.45)"/><path class="cls-1" d="M66.48,12.06,62.86,6.79h2.82l2,3.06,2-3.06h2.81L69,12.06V17H66.48Z" transform="translate(-24.57 -6.45)"/><path class="cls-1" d="M79.24,9H77V6.79h7.1V9H81.76v8H79.24Z" transform="translate(-24.57 -6.45)"/><path class="cls-1" d="M85.23,6.79h2.5v4h4v-4H94.2V17H91.72V13h-4v4h-2.5Z" transform="translate(-24.57 -6.45)"/><path class="cls-1" d="M100.26,6.45h.44l5,10.54H103l-.51-1.06h-4L98,17H95.29Zm1.39,7.7-1.17-2.59h0l-1.19,2.59Z" transform="translate(-24.57 -6.45)"/><path class="cls-1" d="M107.06,9h-2.28V6.79h7.1V9h-2.31v8h-2.51Z" transform="translate(-24.57 -6.45)"/><path class="cls-1" d="M117,6.79h4.27a3.18,3.18,0,0,1,3.32,3.26,3.19,3.19,0,0,1-3.32,3.26h-1.78V17H117Zm4,4.38a1.08,1.08,0,0,0,1-1.19,1,1,0,0,0-1-1.07h-1.54v2.26Z" transform="translate(-24.57 -6.45)"/><path class="cls-1" d="M128.42,6.45h.45l5,10.54h-2.68l-.51-1.06h-4L126.15,17h-2.69Zm1.4,7.7-1.17-2.59h0l-1.19,2.59Z" transform="translate(-24.57 -6.45)"/><path class="cls-1" d="M138.9,6.45a5.62,5.62,0,0,1,4.26,1.78l-1.73,1.6a3.75,3.75,0,0,0-2.53-1,2.93,2.93,0,0,0-3,3.08A2.94,2.94,0,0,0,139,15c1.78,0,2.65-1,2.72-2h-2.91V10.83h5.61v1c0,3-1.77,5.53-5.47,5.53a5.36,5.36,0,0,1-5.53-5.44A5.35,5.35,0,0,1,138.9,6.45Z" transform="translate(-24.57 -6.45)"/><path class="cls-1" d="M146,6.79h6.75V9H148.5v1.83h3.93V13H148.5v1.83h4.44V17H146Z" transform="translate(-24.57 -6.45)"/><path class="cls-1" d="M158.48,6.79H161V17h-2.5Z" transform="translate(-24.57 -6.45)"/><path class="cls-1" d="M165,14a1.07,1.07,0,0,0,1,1.08.9.9,0,0,0,1-.89c0-.76-1-1-1.83-1.27-1.72-.62-2.67-1.41-2.67-3.16A3.39,3.39,0,0,1,166,6.45a3.25,3.25,0,0,1,3.47,3.33h-2.35A1.07,1.07,0,0,0,165,9.71c0,.77.94.9,1.81,1.16,1.82.54,2.67,1.56,2.67,3.16a3.39,3.39,0,0,1-3.46,3.3A3.24,3.24,0,0,1,162.56,14Z" transform="translate(-24.57 -6.45)"/><path class="cls-1" d="M180.77,6.45a5.33,5.33,0,0,1,5.49,5.44,5.49,5.49,0,0,1-11,0A5.32,5.32,0,0,1,180.77,6.45Zm0,8.51a2.9,2.9,0,0,0,2.95-3.07,3,3,0,1,0-5.91,0A2.9,2.9,0,0,0,180.77,15Z" transform="translate(-24.57 -6.45)"/><path class="cls-1" d="M188,6.79h2.48v6.39c0,1.36.65,1.83,1.52,1.83s1.54-.47,1.54-1.83V6.79H196v6.76a3.71,3.71,0,0,1-4,3.78,3.67,3.67,0,0,1-4-3.78Z" transform="translate(-24.57 -6.45)"/><path class="cls-1" d="M199.47,9h-2.28V6.79h7.1V9H202v8h-2.51Z" transform="translate(-24.57 -6.45)"/><path class="cls-1" d="M214.7,6.45a5.33,5.33,0,0,1,5.49,5.44,5.49,5.49,0,0,1-11,0A5.32,5.32,0,0,1,214.7,6.45Zm0,8.51a2.91,2.91,0,0,0,3-3.07,3,3,0,1,0-5.92,0A2.9,2.9,0,0,0,214.7,15Z" transform="translate(-24.57 -6.45)"/><path class="cls-1" d="M221.92,6.79h6.58V9h-4.08v2.17h3.76v2.18h-3.76V17h-2.5Z" transform="translate(-24.57 -6.45)"/><path class="cls-1" d="M235.34,9h-2.28V6.79h7.1V9h-2.31v8h-2.51Z" transform="translate(-24.57 -6.45)"/><path class="cls-1" d="M241.32,6.79h2.5v4h4v-4h2.49V17h-2.49V13h-4v4h-2.5Z" transform="translate(-24.57 -6.45)"/><path class="cls-1" d="M251.93,6.79h2.5V17h-2.5Z" transform="translate(-24.57 -6.45)"/><path class="cls-1" d="M258.44,14a1.07,1.07,0,0,0,1.05,1.08.9.9,0,0,0,1-.89c0-.76-1-1-1.83-1.27C257,12.29,256,11.5,256,9.75a3.39,3.39,0,0,1,3.47-3.3,3.24,3.24,0,0,1,3.46,3.33H260.6a1.07,1.07,0,0,0-2.13-.07c0,.77.94.9,1.81,1.16,1.81.54,2.66,1.56,2.66,3.16a3.38,3.38,0,0,1-3.45,3.3A3.24,3.24,0,0,1,256,14Z" transform="translate(-24.57 -6.45)"/><path class="cls-1" d="M268,6.79h2.61l2.06,4.81,1.24-3.2-.64-1.61h2.58l2,4.79,1.87-4.79h2.6l-4.25,10.54h-.34l-2.52-5.89-2.43,5.89h-.32Z" transform="translate(-24.57 -6.45)"/><path class="cls-1" d="M288.41,6.45a5.33,5.33,0,0,1,5.49,5.44,5.49,5.49,0,0,1-11,0A5.32,5.32,0,0,1,288.41,6.45Zm0,8.51a2.91,2.91,0,0,0,3-3.07,3,3,0,1,0-5.92,0A2.9,2.9,0,0,0,288.41,15Z" transform="translate(-24.57 -6.45)"/><path class="cls-1" d="M295.63,6.79h4.27c2.19,0,3.62,1.32,3.62,3.24a3,3,0,0,1-2.41,3.17L303.86,17h-3.13l-2.6-3.81V17h-2.5Zm4.51,4.42a1.08,1.08,0,0,0,.93-1.18,1.08,1.08,0,0,0-1-1.12h-1.94v2.3Z" transform="translate(-24.57 -6.45)"/><path class="cls-1" d="M304.75,6.79h2.5v8.05h4.43V17h-6.93Z" transform="translate(-24.57 -6.45)"/><path class="cls-1" d="M312.89,6.79h3.55a5.11,5.11,0,1,1,0,10.2h-3.55Zm3.5,7.92a2.71,2.71,0,0,0,2.82-2.84,2.69,2.69,0,0,0-2.82-2.82h-1v5.66Z" transform="translate(-24.57 -6.45)"/><path class="cls-1" d="M323.43,14.9a1.17,1.17,0,1,1-1.22,1.17A1.12,1.12,0,0,1,323.43,14.9Z" transform="translate(-24.57 -6.45)"/><path class="cls-1" d="M62.23,26.85a5.68,5.68,0,0,1,4.37,1.87l-1.71,1.63a3.81,3.81,0,0,0-2.66-1.14,3.08,3.08,0,0,0,0,6.15,3.81,3.81,0,0,0,2.66-1.14l1.66,1.64a5.79,5.79,0,0,1-4.32,1.87,5.44,5.44,0,1,1,0-10.88Z" transform="translate(-24.57 -6.45)"/><path class="cls-1" d="M67.81,27.19h2.5v8.05h4.44v2.15H67.81Z" transform="translate(-24.57 -6.45)"/><path class="cls-1" d="M76,27.19h2.5v10.2H76Z" transform="translate(-24.57 -6.45)"/><path class="cls-1" d="M85.71,26.85a5.69,5.69,0,0,1,4.37,1.87l-1.72,1.63a3.77,3.77,0,0,0-2.65-1.14,3.08,3.08,0,0,0,0,6.15,3.77,3.77,0,0,0,2.65-1.14L90,35.86a5.79,5.79,0,0,1-4.32,1.87,5.44,5.44,0,1,1,0-10.88Z" transform="translate(-24.57 -6.45)"/><path class="cls-1" d="M91.29,27.19h2.5v4.55h0l2.94-4.55h2.76L96,32l3.69,5.36H97l-3.13-5h0v5h-2.5Z" transform="translate(-24.57 -6.45)"/><path class="cls-1" d="M104.5,27.19h6.75V29.4H107v1.83h3.92v2.18H107v1.83h4.43v2.15H104.5Z" transform="translate(-24.57 -6.45)"/><path class="cls-1" d="M117.06,26.85h.44l5,10.54h-2.69l-.51-1.06h-4l-.49,1.06H112.1Zm1.39,7.7L117.28,32h0l-1.19,2.59Z" transform="translate(-24.57 -6.45)"/><path class="cls-1" d="M123.59,27.19h4.26c2.2,0,3.62,1.32,3.62,3.24a3,3,0,0,1-2.41,3.17l2.75,3.79h-3.12l-2.6-3.81v3.81h-2.5Zm4.5,4.42a1.17,1.17,0,0,0-.07-2.3h-1.93v2.3Z" transform="translate(-24.57 -6.45)"/><path class="cls-1" d="M134.33,29.4h-2.28V27.19h7.11V29.4h-2.31v8h-2.52Z" transform="translate(-24.57 -6.45)"/><path class="cls-1" d="M140.32,27.19h2.49v4h4v-4h2.48v10.2h-2.48v-4h-4v4h-2.49Z" transform="translate(-24.57 -6.45)"/><path class="cls-1" d="M156.72,29.4h-2.28V27.19h7.11V29.4h-2.31v8h-2.52Z" transform="translate(-24.57 -6.45)"/><path class="cls-1" d="M167.62,26.85a5.44,5.44,0,1,1-5.49,5.44A5.33,5.33,0,0,1,167.62,26.85Zm0,8.51a2.9,2.9,0,0,0,2.95-3.07,3,3,0,1,0-5.91,0A2.9,2.9,0,0,0,167.62,35.36Z" transform="translate(-24.57 -6.45)"/><path class="cls-1" d="M184,26.85a5.63,5.63,0,0,1,4.27,1.78l-1.74,1.6a3.73,3.73,0,0,0-2.53-1,3.08,3.08,0,0,0,.05,6.15c1.79,0,2.65-1,2.72-2h-2.91V31.23h5.61v1c0,3-1.76,5.53-5.47,5.53a5.44,5.44,0,1,1,0-10.88Z" transform="translate(-24.57 -6.45)"/><path class="cls-1" d="M196.67,26.85a5.44,5.44,0,1,1-5.49,5.44A5.33,5.33,0,0,1,196.67,26.85Zm0,8.51a2.91,2.91,0,0,0,3-3.07,3,3,0,1,0-5.92,0A2.9,2.9,0,0,0,196.67,35.36Z" transform="translate(-24.57 -6.45)"/><path class="cls-1" d="M207.89,27.19H212A2.94,2.94,0,0,1,215.06,30a2.41,2.41,0,0,1-1.1,2.09v0a2.89,2.89,0,0,1,1.5,2.51,2.81,2.81,0,0,1-3.07,2.71h-4.5Zm3.67,4.06a.95.95,0,1,0,0-1.89h-1.19v1.89Zm.32,3.91a.86.86,0,0,0,1-.88.91.91,0,0,0-1-.91h-1.51v1.79Z" transform="translate(-24.57 -6.45)"/><path class="cls-1" d="M220.57,26.85H221l5,10.54h-2.68l-.51-1.06h-4l-.5,1.06h-2.68Zm1.39,7.7L220.79,32h0l-1.19,2.59Z" transform="translate(-24.57 -6.45)"/><path class="cls-1" d="M231.2,26.85a5.67,5.67,0,0,1,4.36,1.87l-1.71,1.63a3.79,3.79,0,0,0-2.65-1.14,3.08,3.08,0,0,0,0,6.15,3.79,3.79,0,0,0,2.65-1.14l1.66,1.64a5.79,5.79,0,0,1-4.31,1.87,5.44,5.44,0,1,1,0-10.88Z" transform="translate(-24.57 -6.45)"/><path class="cls-1" d="M236.77,27.19h2.5v4.55h0l2.94-4.55H245L241.5,32l3.69,5.36h-2.76l-3.12-5h0v5h-2.5Z" transform="translate(-24.57 -6.45)"/><path class="cls-1" d="M250,27.19h2.5v4h4v-4H259v10.2h-2.49v-4h-4v4H250Z" transform="translate(-24.57 -6.45)"/><path class="cls-1" d="M266.18,26.85a5.44,5.44,0,1,1-5.49,5.44A5.33,5.33,0,0,1,266.18,26.85Zm0,8.51a2.91,2.91,0,0,0,3-3.07,3,3,0,1,0-5.92,0A2.9,2.9,0,0,0,266.18,35.36Z" transform="translate(-24.57 -6.45)"/><path class="cls-1" d="M273.41,27.19h2.33l2.6,5.5,2.62-5.5h2.29v10.2h-2.48V32.85l-2.23,4.88h-.41l-2.22-4.92v4.58h-2.5Z" transform="translate(-24.57 -6.45)"/><path class="cls-1" d="M284.88,27.19h6.75V29.4h-4.25v1.83h3.93v2.18h-3.93v1.83h4.44v2.15h-6.94Z" transform="translate(-24.57 -6.45)"/></svg>