<svg id="Layer_1" data-name="Layer 1" xmlns="http://www.w3.org/2000/svg" viewBox="0 0 355.35 31.01"><defs><style>.cls-1{fill:#f9f9fa;}</style></defs><title>StateOfAffairs</title><path class="cls-1" d="M9.11,136a3,3,0,0,0,3,3.05c1.79,0,2.91-1,2.91-2.52,0-2.18-2.86-2.81-5.23-3.63-4.9-1.75-7.61-4-7.61-9a9.67,9.67,0,0,1,9.88-9.4c6.45,0,9.5,4.11,9.89,9.49H15.26a2.82,2.82,0,0,0-3-3,2.81,2.81,0,0,0-3,2.81c0,2.18,2.66,2.57,5.13,3.29,5.18,1.55,7.61,4.46,7.61,9a9.63,9.63,0,0,1-9.84,9.4c-6.34,0-9.93-4.26-9.93-9.49Z" transform="translate(-2.18 -114.44)"/><path class="cls-1" d="M31.39,121.7H24.9v-6.29H45.15v6.29H38.56v22.77H31.39Z" transform="translate(-2.18 -114.44)"/><path class="cls-1" d="M56.68,114.44h1.26l14.24,30H64.52l-1.45-3H51.59l-1.41,3H42.53Zm4,21.94L57.31,129h-.1l-3.39,7.36Z" transform="translate(-2.18 -114.44)"/><path class="cls-1" d="M76.05,121.7H69.56v-6.29H89.81v6.29H83.22v22.77H76.05Z" transform="translate(-2.18 -114.44)"/><path class="cls-1" d="M93.1,115.41h19.23v6.29H100.22v5.24h11.19v6.2H100.22v5.23h12.65v6.1H93.1Z" transform="translate(-2.18 -114.44)"/><path class="cls-1" d="M143.62,114.44A15.5,15.5,0,1,1,128,129.94,15.19,15.19,0,0,1,143.62,114.44Zm0,24.27c5.14,0,8.43-3.88,8.43-8.77s-3.29-8.77-8.43-8.77-8.43,3.88-8.43,8.77S138.44,138.71,143.62,138.71Z" transform="translate(-2.18 -114.44)"/><path class="cls-1" d="M164.21,115.41H183v6.29H171.33v6.2H182v6.21H171.33v10.36h-7.12Z" transform="translate(-2.18 -114.44)"/><path class="cls-1" d="M209.89,114.44h1.26l14.24,30h-7.65l-1.46-3H204.8l-1.4,3h-7.66Zm4,21.94L210.52,129h-.1L207,136.38Z" transform="translate(-2.18 -114.44)"/><path class="cls-1" d="M228.49,115.41h18.75v6.29H235.61v6.2h10.71v6.21H235.61v10.36h-7.12Z" transform="translate(-2.18 -114.44)"/><path class="cls-1" d="M250.19,115.41h18.75v6.29H257.31v6.2H268v6.21H257.31v10.36h-7.12Z" transform="translate(-2.18 -114.44)"/><path class="cls-1" d="M281.58,114.44h1.26l14.24,30h-7.65l-1.46-3H276.49l-1.4,3h-7.66Zm4,21.94L282.21,129h-.1l-3.39,7.36Z" transform="translate(-2.18 -114.44)"/><path class="cls-1" d="M300.18,115.41h7.12v29.06h-7.12Z" transform="translate(-2.18 -114.44)"/><path class="cls-1" d="M312,115.41h12.16c6.25,0,10.32,3.77,10.32,9.25,0,5.09-2.57,7.94-6.88,9l7.85,10.8h-8.92l-7.41-10.85v10.85H312ZM324.79,128c1.6,0,2.66-1.65,2.66-3.34a3.07,3.07,0,0,0-2.86-3.2h-5.52V128Z" transform="translate(-2.18 -114.44)"/><path class="cls-1" d="M344.7,136a3,3,0,0,0,3,3.05c1.79,0,2.91-1,2.91-2.52,0-2.18-2.86-2.81-5.24-3.63-4.89-1.75-7.6-4-7.6-9a9.67,9.67,0,0,1,9.88-9.4c6.44,0,9.5,4.11,9.88,9.49h-6.68a3,3,0,0,0-6.06-.19c0,2.18,2.67,2.57,5.14,3.29,5.18,1.55,7.6,4.46,7.6,9a9.63,9.63,0,0,1-9.83,9.4c-6.35,0-9.93-4.26-9.93-9.49Z" transform="translate(-2.18 -114.44)"/></svg>